<svg width="14" height="14" viewBox="0 0 14 14" fill="none" xmlns="http://www.w3.org/2000/svg">
<path d="M11.373 8.15671L12.5198 10.1435C12.567 10.2253 12.5937 10.3174 12.5975 10.4117C12.6013 10.5061 12.5822 10.6 12.5417 10.6853C12.5013 10.7707 12.4408 10.845 12.3653 10.9018C12.2899 10.9586 12.2018 10.9963 12.1086 11.0115L12.0427 11.018L11.9773 11.0174L10.2664 10.9065L9.50634 12.4442C9.46508 12.5275 9.40454 12.5997 9.32975 12.6548C9.25497 12.71 9.1681 12.7465 9.07636 12.7613C8.98462 12.7762 8.89067 12.7689 8.80232 12.7401C8.71396 12.7113 8.63375 12.6619 8.56834 12.5959L8.52051 12.541L8.47851 12.4769L7.33051 10.4895C8.13865 10.4389 8.92412 10.2021 9.62544 9.79736C10.3268 9.39266 10.9249 8.83112 11.373 8.15671Z" fill="white"/>
<path d="M6.66785 10.4895L5.52101 12.4775C5.47454 12.558 5.40951 12.6263 5.33132 12.6766C5.25314 12.7269 5.16406 12.7579 5.07151 12.7668C4.97895 12.7758 4.8856 12.7625 4.79921 12.7281C4.71283 12.6937 4.6359 12.6392 4.57485 12.569L4.53051 12.5107L4.49318 12.4442L3.73251 10.9071L2.02276 11.018C1.92858 11.024 1.83434 11.0072 1.7481 10.9688C1.66186 10.9305 1.5862 10.8718 1.5276 10.7978C1.46899 10.7239 1.42919 10.6368 1.4116 10.5441C1.39401 10.4514 1.39916 10.3558 1.4266 10.2655L1.44993 10.203L1.4791 10.1447L2.6271 8.15612C3.07491 8.83052 3.67271 9.39215 4.37371 9.79705C5.07472 10.2019 5.85991 10.4385 6.66785 10.4895Z" fill="white"/>
<path d="M7.00036 1.16663L7.14036 1.16896C8.19847 1.20526 9.20112 1.65112 9.93681 2.41249C10.6725 3.17387 11.0837 4.19122 11.0837 5.24996L11.0819 5.36254L11.0779 5.47454L11.0674 5.61746L11.0522 5.75863L11.0382 5.86246C10.9998 6.11425 10.9379 6.36189 10.8533 6.60213L10.7856 6.78179L10.6964 6.98479C10.3661 7.68829 9.84201 8.28295 9.18557 8.69895C8.52914 9.11494 7.76764 9.33501 6.99049 9.33329C6.21334 9.33158 5.45282 9.10815 4.79823 8.68926C4.14363 8.27037 3.62215 7.6734 3.29502 6.96846L3.21919 6.79521L3.18886 6.71763L3.14219 6.59104L3.08677 6.41954C3.06698 6.35313 3.04889 6.28622 3.03252 6.21888L2.99752 6.06079L2.96894 5.90271L2.95727 5.82163L2.93452 5.63321L2.92052 5.42029L2.91702 5.24996C2.91701 4.19122 3.32821 3.17387 4.0639 2.41249C4.79959 1.65112 5.80224 1.20526 6.86036 1.16896L7.00036 1.16663Z" fill="white"/>
</svg>
