<svg width="14" height="14" viewBox="0 0 14 14" fill="none" xmlns="http://www.w3.org/2000/svg">
<path d="M2.33301 6.41675C2.48169 6.41691 2.6247 6.47384 2.73281 6.57591C2.84092 6.67797 2.90598 6.81747 2.9147 6.96589C2.92341 7.11432 2.87512 7.26047 2.77969 7.37448C2.68426 7.4885 2.5489 7.56177 2.40126 7.57933L2.33301 7.58341H1.74968C1.601 7.58325 1.45799 7.52632 1.34988 7.42425C1.24177 7.32219 1.17671 7.18269 1.168 7.03427C1.15928 6.88584 1.20757 6.73969 1.303 6.62568C1.39843 6.51166 1.53379 6.43839 1.68143 6.42083L1.74968 6.41675H2.33301Z" fill="white"/>
<path d="M6.99968 1.16675C7.14256 1.16677 7.28046 1.21922 7.38723 1.31417C7.494 1.40911 7.56221 1.53993 7.57893 1.68183L7.58301 1.75008V2.33341C7.58285 2.48209 7.52592 2.6251 7.42385 2.73321C7.32179 2.84133 7.18229 2.90638 7.03387 2.9151C6.88544 2.92381 6.73929 2.87552 6.62528 2.78009C6.51126 2.68467 6.43799 2.5493 6.42043 2.40166L6.41635 2.33341V1.75008C6.41635 1.59537 6.47781 1.447 6.5872 1.3376C6.6966 1.22821 6.84497 1.16675 6.99968 1.16675Z" fill="white"/>
<path d="M12.2497 6.41675C12.3984 6.41691 12.5414 6.47384 12.6495 6.57591C12.7576 6.67797 12.8226 6.81747 12.8314 6.96589C12.8401 7.11432 12.7918 7.26047 12.6964 7.37448C12.6009 7.4885 12.4656 7.56177 12.3179 7.57933L12.2497 7.58341H11.6663C11.5177 7.58325 11.3747 7.52632 11.2665 7.42425C11.1584 7.32219 11.0934 7.18269 11.0847 7.03427C11.0759 6.88584 11.1242 6.73969 11.2197 6.62568C11.3151 6.51166 11.4505 6.43839 11.5981 6.42083L11.6663 6.41675H12.2497Z" fill="white"/>
<path d="M2.85393 2.85433C2.95438 2.75389 3.08802 2.69356 3.22978 2.68464C3.37155 2.67573 3.51169 2.71885 3.62393 2.80591L3.67876 2.85433L4.0871 3.26266C4.19172 3.36764 4.25246 3.5085 4.25698 3.65664C4.2615 3.80477 4.20947 3.94908 4.11145 4.06024C4.01343 4.17141 3.87677 4.24109 3.72924 4.25515C3.5817 4.2692 3.43434 4.22657 3.3171 4.13591L3.26226 4.0875L2.85393 3.67916C2.74457 3.56977 2.68314 3.42143 2.68314 3.26675C2.68314 3.11207 2.74457 2.96372 2.85393 2.85433Z" fill="white"/>
<path d="M10.3206 2.85433C10.4256 2.74971 10.5664 2.68897 10.7146 2.68445C10.8627 2.67992 11.007 2.73196 11.1182 2.82998C11.2293 2.92799 11.299 3.06465 11.3131 3.21219C11.3271 3.35973 11.2845 3.50708 11.1938 3.62433L11.1454 3.67916L10.7371 4.0875C10.6321 4.19212 10.4913 4.25286 10.3431 4.25738C10.195 4.2619 10.0507 4.20987 9.93952 4.11185C9.82836 4.01383 9.75867 3.87717 9.74462 3.72964C9.73056 3.5821 9.77319 3.43474 9.86385 3.3175L9.91227 3.26266L10.3206 2.85433Z" fill="white"/>
<path d="M8.16635 10.5001C8.32106 10.5001 8.46943 10.5615 8.57883 10.6709C8.68822 10.7803 8.74968 10.9287 8.74968 11.0834C8.74968 11.5475 8.56531 11.9927 8.23712 12.3209C7.90893 12.649 7.46381 12.8334 6.99968 12.8334C6.53555 12.8334 6.09043 12.649 5.76224 12.3209C5.43405 11.9927 5.24968 11.5475 5.24968 11.0834C5.2497 10.9405 5.30215 10.8026 5.3971 10.6959C5.49204 10.5891 5.62287 10.5209 5.76476 10.5042L5.83301 10.5001H8.16635Z" fill="white"/>
<path d="M6.99968 3.50008C7.73427 3.50008 8.45024 3.73121 9.04617 4.16073C9.6421 4.59026 10.0878 5.19639 10.3201 5.89328C10.5524 6.59018 10.5595 7.34249 10.3405 8.04367C10.1214 8.74484 9.68735 9.35933 9.09968 9.80008C9.01928 9.86047 8.92464 9.89905 8.82493 9.91208L8.74968 9.91675H5.24968C5.12346 9.91675 5.00065 9.87581 4.89968 9.80008C4.31201 9.35933 3.87791 8.74484 3.65888 8.04367C3.43985 7.34249 3.44699 6.59018 3.67929 5.89328C3.91159 5.19639 4.35726 4.59026 4.95319 4.16073C5.54912 3.73121 6.26509 3.50008 6.99968 3.50008Z" fill="white"/>
</svg>
