<svg width="14" height="14" viewBox="0 0 14 14" fill="none" xmlns="http://www.w3.org/2000/svg">
<path d="M9.91699 1.94832C10.7968 2.45632 11.5287 3.18529 12.0402 4.06308C12.5517 4.94087 12.8251 5.93702 12.8333 6.95294C12.8415 7.96885 12.5843 8.96929 12.087 9.85523C11.5897 10.7412 10.8697 11.4819 9.99822 12.004C9.12672 12.5262 8.13396 12.8116 7.11822 12.8322C6.10248 12.8527 5.09898 12.6077 4.20707 12.1212C3.31515 11.6348 2.56575 10.9238 2.03305 10.0587C1.50035 9.19362 1.20281 8.2044 1.16991 7.18899L1.16699 6.99999L1.16991 6.81099C1.20258 5.80357 1.49573 4.8218 2.02078 3.9614C2.54584 3.101 3.28487 2.39134 4.16585 1.90159C5.04682 1.41184 6.03966 1.15872 7.04758 1.16691C8.0555 1.1751 9.0441 1.44432 9.91699 1.94832ZM9.16274 5.42091C9.0623 5.32047 8.92865 5.26013 8.78689 5.25122C8.64512 5.24231 8.50498 5.28542 8.39274 5.37249L8.33791 5.42091L6.41699 7.34124L5.66274 6.58757L5.60791 6.53915C5.49567 6.45215 5.35554 6.40909 5.21381 6.41803C5.07208 6.42697 4.93848 6.48731 4.83806 6.58772C4.73764 6.68814 4.67731 6.82174 4.66837 6.96347C4.65942 7.1052 4.70249 7.24533 4.78949 7.35757L4.83791 7.4124L6.00458 8.57907L6.05941 8.62749C6.16171 8.70686 6.28751 8.74994 6.41699 8.74994C6.54647 8.74994 6.67227 8.70686 6.77458 8.62749L6.82941 8.57907L9.16274 6.24574L9.21116 6.1909C9.29822 6.07867 9.34134 5.93852 9.33243 5.79676C9.32351 5.65499 9.26318 5.52135 9.16274 5.42091Z" fill="white"/>
</svg>
