<svg width="14" height="14" viewBox="0 0 14 14" fill="none" xmlns="http://www.w3.org/2000/svg">
<path d="M7.00033 1.16675C10.2221 1.16675 12.8337 3.77833 12.8337 7.00008C12.8337 8.54718 12.2191 10.0309 11.1251 11.1249C10.0312 12.2188 8.54742 12.8334 7.00033 12.8334C5.45323 12.8334 3.9695 12.2188 2.87554 11.1249C1.78157 10.0309 1.16699 8.54718 1.16699 7.00008C1.16699 3.77833 3.77858 1.16675 7.00033 1.16675ZM8.16699 4.08341C7.73817 4.08335 7.32425 4.24073 7.0038 4.52569C6.68335 4.81065 6.47869 5.20335 6.42866 5.62925L6.41991 5.73075L6.41699 5.83342L6.41991 5.93608C6.43099 6.12216 6.47066 6.30008 6.53483 6.46575L6.58733 6.58767L4.54566 8.62933L4.49783 8.68417C4.41845 8.78647 4.37537 8.91227 4.37537 9.04175C4.37537 9.17123 4.41845 9.29703 4.49783 9.39933L4.54624 9.45417L5.42124 10.3292L5.47608 10.3776C5.57838 10.457 5.70418 10.5 5.83366 10.5C5.96314 10.5 6.08894 10.457 6.19124 10.3776L6.24608 10.3292L6.29449 10.2743C6.37386 10.172 6.41694 10.0462 6.41694 9.91675C6.41694 9.78727 6.37386 9.66147 6.29449 9.55916L6.24608 9.50433L5.78408 9.04175L6.12533 8.7005L6.58791 9.1625L6.64274 9.21092C6.75498 9.29792 6.89511 9.34098 7.03684 9.33204C7.17857 9.3231 7.31217 9.26276 7.41259 9.16235C7.51301 9.06193 7.57334 8.92833 7.58229 8.7866C7.59123 8.64487 7.54816 8.50474 7.46116 8.3925L7.41274 8.33767L6.95074 7.87508L7.41274 7.41308C7.64975 7.52607 7.90915 7.58429 8.17171 7.58341C8.43427 7.58252 8.69327 7.52257 8.92952 7.40799C9.16576 7.29341 9.3732 7.12714 9.53645 6.9215C9.6997 6.71586 9.81459 6.47611 9.8726 6.22004C9.9306 5.96396 9.93025 5.69811 9.87155 5.44219C9.81285 5.18627 9.69732 4.94684 9.53351 4.74164C9.3697 4.53644 9.16182 4.37073 8.92527 4.25678C8.68872 4.14284 8.42956 4.08359 8.16699 4.08341ZM8.16699 5.25008C8.3217 5.25008 8.47008 5.31154 8.57947 5.42094C8.68887 5.53033 8.75033 5.67871 8.75033 5.83342C8.75033 5.98812 8.68887 6.1365 8.57947 6.24589C8.47008 6.35529 8.3217 6.41675 8.16699 6.41675C8.01228 6.41675 7.86391 6.35529 7.75451 6.24589C7.64512 6.1365 7.58366 5.98812 7.58366 5.83342C7.58366 5.67871 7.64512 5.53033 7.75451 5.42094C7.86391 5.31154 8.01228 5.25008 8.16699 5.25008Z" fill="white"/>
</svg>
