<svg width="14" height="14" viewBox="0 0 14 14" fill="none" xmlns="http://www.w3.org/2000/svg">
<path d="M7.00033 1.16669C10.2221 1.16669 12.8337 3.77827 12.8337 7.00002C12.8349 8.53155 12.2337 10.0021 11.16 11.0942C10.0863 12.1863 8.62616 12.8124 7.09484 12.8372C5.56351 12.862 4.08386 12.2836 2.97532 11.2269C1.86679 10.1701 1.21832 8.71978 1.16991 7.18902L1.16699 7.00002L1.16933 6.83669C1.25566 3.69077 3.83283 1.16669 7.00033 1.16669ZM7.00033 6.41669H6.41699L6.34874 6.42077C6.20696 6.43763 6.07629 6.50591 5.98148 6.61267C5.88667 6.71942 5.83431 6.85724 5.83431 7.00002C5.83431 7.1428 5.88667 7.28062 5.98148 7.38737C6.07629 7.49413 6.20696 7.56241 6.34874 7.57927L6.41699 7.58335V9.33335L6.42108 9.4016C6.43643 9.53181 6.49521 9.65305 6.58792 9.74576C6.68063 9.83847 6.80187 9.89725 6.93208 9.9126L7.00033 9.91669H7.58366L7.65191 9.9126C7.78212 9.89725 7.90336 9.83847 7.99607 9.74576C8.08878 9.65305 8.14755 9.53181 8.16291 9.4016L8.16699 9.33335L8.16291 9.2651C8.14896 9.14609 8.09871 9.03426 8.01897 8.94481C7.93923 8.85537 7.83388 8.79265 7.71724 8.76519L7.65191 8.75352L7.58366 8.75002V7.00002L7.57958 6.93177C7.56422 6.80156 7.50545 6.68032 7.41273 6.58761C7.32002 6.4949 7.19878 6.43613 7.06857 6.42077L7.00033 6.41669ZM7.00616 4.66669L6.93208 4.67077C6.7903 4.68763 6.65963 4.75591 6.56482 4.86267C6.47001 4.96942 6.41764 5.10724 6.41764 5.25002C6.41764 5.3928 6.47001 5.53062 6.56482 5.63737C6.65963 5.74413 6.7903 5.81241 6.93208 5.82927L7.00033 5.83335L7.07441 5.82927C7.21619 5.81241 7.34686 5.74413 7.44167 5.63737C7.53648 5.53062 7.58884 5.3928 7.58884 5.25002C7.58884 5.10724 7.53648 4.96942 7.44167 4.86267C7.34686 4.75591 7.21619 4.68763 7.07441 4.67077L7.00616 4.66669Z" fill="white"/>
</svg>
