<svg width="14" height="14" viewBox="0 0 14 14" fill="none" xmlns="http://www.w3.org/2000/svg">
<path d="M8.16627 1.16663C8.30914 1.16664 8.44705 1.2191 8.55382 1.31404C8.66059 1.40899 8.7288 1.53981 8.74552 1.68171L8.7496 1.74996V11.6666H9.33293C9.48161 11.6668 9.62462 11.7237 9.73273 11.8258C9.84084 11.9279 9.9059 12.0673 9.91462 12.2158C9.92333 12.3642 9.87504 12.5103 9.77961 12.6244C9.68418 12.7384 9.54882 12.8116 9.40118 12.8292L9.33293 12.8333H6.9996C6.85092 12.8331 6.70791 12.7762 6.5998 12.6741C6.49169 12.5721 6.42663 12.4326 6.41792 12.2841C6.4092 12.1357 6.45749 11.9896 6.55292 11.8756C6.64835 11.7615 6.78371 11.6883 6.93135 11.6707L6.9996 11.6666H7.58293V7.37854L2.67943 5.19979C2.24077 5.00438 2.2186 4.40354 2.61352 4.16729L2.67943 4.13346L7.58293 1.95413V1.74996C7.58293 1.59525 7.64439 1.44688 7.75379 1.33748C7.86318 1.22808 8.01156 1.16663 8.16627 1.16663Z" fill="white"/>
</svg>
