<svg width="14" height="14" viewBox="0 0 14 14" fill="none" xmlns="http://www.w3.org/2000/svg">
<path d="M6.93231 1.17083L6.99881 1.16675L7.06765 1.17083L7.10206 1.1755L7.13765 1.18308L7.2024 1.20291C7.24712 1.2194 7.28963 1.24135 7.32898 1.26825L7.38965 1.31608L7.5384 1.44325C8.71516 2.42066 10.2024 2.94551 11.732 2.92316L11.9315 2.91733C12.0619 2.91138 12.1906 2.94936 12.2969 3.02519C12.4031 3.10102 12.4809 3.21031 12.5177 3.33558C12.8044 4.31067 12.8921 5.33343 12.7757 6.34308C12.6592 7.35274 12.341 8.32869 11.84 9.21294C11.3389 10.0972 10.6652 10.8717 9.85893 11.4904C9.05263 12.1092 8.13018 12.5595 7.1464 12.8147C7.05037 12.8396 6.94958 12.8396 6.85356 12.8147C5.86972 12.5596 4.94721 12.1093 4.14085 11.4906C3.33449 10.8719 2.66073 10.0974 2.15961 9.21311C1.65849 8.32885 1.34025 7.35288 1.22378 6.34319C1.10731 5.3335 1.19501 4.31071 1.48165 3.33558C1.51846 3.21031 1.59624 3.10102 1.70252 3.02519C1.80881 2.94936 1.93747 2.91138 2.0679 2.91733C3.66475 2.99033 5.23135 2.46466 6.46098 1.44325L6.6144 1.312L6.6704 1.26825C6.70974 1.24135 6.75226 1.2194 6.79698 1.20291L6.86231 1.18308C6.88517 1.17756 6.90894 1.17347 6.93231 1.17083Z" fill="white"/>
</svg>
