<svg width="14" height="14" viewBox="0 0 14 14" fill="none" xmlns="http://www.w3.org/2000/svg">
<path d="M6.5625 4.57715C6.0165 4.72648 5.6875 5.1459 5.6875 5.5414C5.6875 5.9369 6.0165 6.35632 6.5625 6.50507V4.57715ZM7.4375 7.4944V9.42173C7.9835 9.27298 8.3125 8.85356 8.3125 8.45806C8.3125 8.06256 7.9835 7.64315 7.4375 7.4944Z" fill="white"/>
<path fill-rule="evenodd" clip-rule="evenodd" d="M12.8327 7.00033C12.8327 10.2221 10.2211 12.8337 6.99935 12.8337C3.7776 12.8337 1.16602 10.2221 1.16602 7.00033C1.16602 3.77858 3.7776 1.16699 6.99935 1.16699C10.2211 1.16699 12.8327 3.77858 12.8327 7.00033ZM6.99935 3.06283C7.11538 3.06283 7.22666 3.10892 7.30871 3.19097C7.39076 3.27301 7.43685 3.38429 7.43685 3.50033V3.68524C8.38768 3.85558 9.18685 4.57016 9.18685 5.54199C9.18685 5.65802 9.14076 5.7693 9.05871 5.85135C8.97666 5.9334 8.86538 5.97949 8.74935 5.97949C8.63332 5.97949 8.52204 5.9334 8.43999 5.85135C8.35794 5.7693 8.31185 5.65802 8.31185 5.54199C8.31185 5.14649 7.98285 4.72708 7.43685 4.57774V6.60191C8.38768 6.77224 9.18685 7.48683 9.18685 8.45866C9.18685 9.43049 8.38768 10.1451 7.43685 10.3154V10.5003C7.43685 10.6164 7.39076 10.7276 7.30871 10.8097C7.22666 10.8917 7.11538 10.9378 6.99935 10.9378C6.88332 10.9378 6.77204 10.8917 6.68999 10.8097C6.60794 10.7276 6.56185 10.6164 6.56185 10.5003V10.3154C5.61102 10.1451 4.81185 9.43049 4.81185 8.45866C4.81185 8.34263 4.85794 8.23135 4.93999 8.1493C5.02204 8.06725 5.13332 8.02116 5.24935 8.02116C5.36538 8.02116 5.47666 8.06725 5.55871 8.1493C5.64076 8.23135 5.68685 8.34263 5.68685 8.45866C5.68685 8.85416 6.01585 9.27358 6.56185 9.42233V7.39874C5.61102 7.22841 4.81185 6.51383 4.81185 5.54199C4.81185 4.57016 5.61102 3.85558 6.56185 3.68524V3.50033C6.56185 3.38429 6.60794 3.27301 6.68999 3.19097C6.77204 3.10892 6.88332 3.06283 6.99935 3.06283Z" fill="white"/>
</svg>
