<svg preserveAspectRatio="none" width="100%" height="100%" overflow="visible" style="display: block;" viewBox="0 0 27 17" fill="none" xmlns="http://www.w3.org/2000/svg">
<g id="Frame" clip-path="url(#clip0_2029_2584)">
<path id="Vector" d="M5.80235 3.74694C5.80235 3.74694 8.07044 0 12.7167 0C17.363 0 19.532 3.64688 19.532 3.64688H25.8298L25.5766 5.20347C25.5766 5.20347 25.4004 5.82611 25.1141 5.89282H25.5435C25.5435 5.89282 25.6867 6.44874 24.8279 8.33889H26.6666C26.6666 8.33889 26.7326 11.6522 22.769 13.2088C22.769 13.2088 20.7211 13.8648 19.6751 12.7418C19.6751 12.7418 17.5832 16.6667 12.7167 16.6667C7.85023 16.6667 5.65921 12.6306 5.65921 12.6306H0L0.902832 10.9962H0.286264L1.01293 9.65088H2.23506L2.44425 9.13943H1.87172L3.28102 6.51545H4.07375L4.39305 5.71492H3.71042L4.75638 3.74694H5.80235Z" fill="var(--fill-0, white)"/>
<path id="Vector_2" d="M12.7827 15.7875C16.7573 15.7875 19.9833 12.4853 19.9833 8.40478C19.9833 4.3354 16.7573 1.0332 12.7827 1.0332C8.80801 1.0332 5.58203 4.3354 5.58203 8.40478C5.58203 12.4853 8.80801 15.7875 12.7827 15.7875Z" fill="var(--fill-0, #FDB927)"/>
<path id="Vector_3" d="M13.5755 8.37288H13.2672C13.2557 8.37366 13.245 8.37859 13.2369 8.38677C13.2288 8.39495 13.2239 8.40581 13.2231 8.41735C13.2231 8.43959 13.2452 8.45071 13.2672 8.45071H13.5865C13.6966 8.45071 13.7957 8.46182 13.7626 8.5063L12.9369 10.1074C12.9231 10.144 12.8984 10.1754 12.8661 10.1972C12.8338 10.219 12.7956 10.23 12.7568 10.2288C12.718 10.2276 12.6805 10.2142 12.6496 10.1904C12.6188 10.1666 12.596 10.1337 12.5845 10.0962L12.1772 7.96149L13.6085 6.83852C13.7516 6.7051 14.0269 6.50496 14.17 6.50496H14.4893C14.6765 6.50496 14.7425 6.59391 14.6985 6.71622L14.6434 6.81628C14.6104 6.88299 14.4893 6.89411 14.4012 6.89411H14.214C14.2096 6.89346 14.205 6.89387 14.2007 6.89532C14.1964 6.89677 14.1925 6.89921 14.1893 6.90244C14.1861 6.90568 14.1836 6.90963 14.1822 6.91397C14.1808 6.91832 14.1804 6.92294 14.181 6.92747C14.181 6.94971 14.192 6.97194 14.214 6.97194H14.4012C14.4783 6.97194 14.5664 6.97194 14.5333 7.02753L13.8727 8.31728C13.8397 8.36176 13.6966 8.37288 13.5755 8.37288ZM16.0638 9.16229C15.3921 9.99618 15.0178 10.2741 14.3352 10.2741C14.1039 10.2741 13.9828 10.2186 14.0379 10.1074L14.8526 8.46182H15.1609C15.5022 8.46182 15.4582 8.75091 15.3701 9.15117C15.3481 9.20677 15.3921 9.20677 15.4362 9.16229L16.2069 7.79471C16.2399 7.70576 16.1408 7.69465 16.0968 7.76136C15.7114 8.28393 15.3041 8.25057 15.1279 8.25057H14.9958L15.8546 6.58279H16.2069C16.6473 6.60503 16.8455 6.98306 16.7244 7.89478H16.9005L17.5391 6.62727C17.5942 6.51608 17.4841 6.41602 17.3629 6.41602L13.047 6.42713C12.7937 6.42713 12.7827 6.61615 13.025 6.61615C13.2231 6.61615 13.2121 6.89411 13.036 7.02753L11.1973 8.5063L11.5716 10.2408C11.5809 10.2995 11.6126 10.3522 11.66 10.3876C11.7073 10.4229 11.7665 10.4381 11.8248 10.4298H15.3921C15.4429 10.4346 15.4941 10.4258 15.5405 10.4044C15.5868 10.3829 15.6268 10.3495 15.6564 10.3075L16.295 9.18453C16.383 9.01775 16.1849 9.02887 16.0638 9.16229Z" fill="var(--fill-0, #31006F)"/>
<path id="Vector_4" d="M8.16948 8.69455H7.03543L8.46675 6.78217L8.16948 8.69455ZM7.90523 9.88423C7.8722 10.0732 7.67402 10.2067 7.4318 10.2734L7.17856 10.3401L7.38776 9.96206C7.44281 9.85088 7.3217 9.79529 7.18957 9.95095C6.30876 10.985 6.0225 11.4853 4.65724 11.4853H4.29391C4.1838 11.4853 4.06269 11.4408 4.13976 11.3408L4.62421 10.429H6.45189C6.69412 10.429 6.63907 10.24 6.48492 10.24C6.42944 10.231 6.37638 10.2105 6.32904 10.1799C6.28169 10.1493 6.24107 10.1092 6.20967 10.0621C6.18688 10.021 6.17584 9.97425 6.17778 9.92714C6.17972 9.88002 6.19458 9.83438 6.22068 9.79529L6.91432 8.85021H8.0814L7.90523 9.88423ZM10.6137 10.24C10.575 10.2363 10.5381 10.2219 10.5071 10.1984C10.476 10.1748 10.4519 10.1431 10.4376 10.1066C10.4019 9.99762 10.4058 9.87939 10.4486 9.77305L12.1111 6.79328C12.1331 6.73769 12.2102 6.61539 12.2873 6.61539C12.4304 6.61539 12.4965 6.42637 12.2542 6.42637H10.911C10.6688 6.42637 10.6688 6.61539 10.9 6.61539C10.9189 6.61407 10.9379 6.61768 10.9551 6.62586C10.9723 6.63405 10.9871 6.64654 10.9981 6.66215C11.0092 6.67776 11.0161 6.69596 11.0181 6.71502C11.0202 6.73409 11.0175 6.75337 11.0101 6.77105L10.6468 7.44928C10.5917 7.51599 10.4926 7.52711 10.3825 7.52711H10.0742C10.0522 7.52711 10.0302 7.53823 10.0302 7.56046C10.031 7.572 10.0359 7.58287 10.044 7.59104C10.052 7.59922 10.0628 7.60416 10.0742 7.60494H10.3825C10.4706 7.60494 10.5367 7.62717 10.4926 7.72724L9.25948 9.99542C9.1714 10.1177 8.99524 10.14 9.00625 9.90647L9.43564 6.59315C9.45766 6.49308 9.43564 6.41525 9.32554 6.41525H8.66493C8.63107 6.41555 8.5979 6.42499 8.56887 6.44258C8.53983 6.46017 8.51598 6.48529 8.49978 6.51532L8.25756 6.8044C8.23554 6.83776 8.15847 6.83776 8.09241 6.83776H7.5419C7.53047 6.83854 7.51971 6.84348 7.51162 6.85165C7.50352 6.85983 7.49863 6.87069 7.49786 6.88223C7.49786 6.90447 7.51988 6.91559 7.5419 6.91559H7.99331C8.07039 6.91559 8.15847 6.93783 8.12544 6.9823L7.49786 7.78283C7.46155 7.80558 7.41947 7.81717 7.37675 7.81619H7.20058C7.17856 7.81619 7.15654 7.82731 7.15654 7.84954C7.15732 7.86108 7.1622 7.87195 7.1703 7.88012C7.1784 7.8883 7.18916 7.89324 7.20058 7.89402H7.34372C7.38776 7.89402 7.38776 7.91626 7.37675 7.93849L6.7822 8.69455C6.73436 8.71843 6.68138 8.72989 6.62806 8.72791H6.09957C6.07755 8.72791 6.06654 8.75014 6.06654 8.77238C6.06589 8.77691 6.0663 8.78153 6.06774 8.78588C6.06917 8.79022 6.07158 8.79417 6.07479 8.79741C6.07799 8.80064 6.0819 8.80308 6.0862 8.80453C6.09051 8.80597 6.09508 8.80639 6.09957 8.80574H6.55099C6.62806 8.80574 6.6721 8.81686 6.63907 8.87245L5.79129 9.93983C5.63714 10.1511 4.86643 10.2511 4.71229 10.2511L7.58594 4.83642C7.60894 4.79105 7.64351 4.75271 7.6861 4.72534C7.72868 4.69798 7.77772 4.68259 7.82816 4.68076H8.43372C8.71998 4.68076 8.71998 4.48063 8.46675 4.48063H5.40593C5.1527 4.48063 5.14169 4.68076 5.43896 4.68076H6.00048C6.16563 4.68076 6.20967 4.76971 6.16563 4.85866L6.08856 5.0032C6.06654 5.04768 6.0225 5.06991 5.86836 5.06991H4.86643C4.84441 5.06991 4.8334 5.09215 4.8334 5.11439C4.83276 5.11892 4.83317 5.12354 4.8346 5.12788C4.83603 5.13223 4.83845 5.13618 4.84165 5.13941C4.84486 5.14265 4.84877 5.14509 4.85307 5.14653C4.85737 5.14798 4.86195 5.14839 4.86643 5.14774H5.86836C5.92341 5.14774 6.00048 5.16998 5.95644 5.27005L5.81331 5.52577C5.79129 5.57025 5.72522 5.58137 5.65916 5.58137H5.19674C5.17472 5.58137 5.16371 5.6036 5.16371 5.62584C5.16371 5.64808 5.17472 5.67031 5.19674 5.67031H5.64815C5.71421 5.67031 5.72522 5.71479 5.68118 5.77038L5.36189 6.37078C5.32886 6.42637 5.28482 6.43749 5.17472 6.43749H4.99856C4.97653 6.43749 4.95451 6.44861 4.95451 6.47085C4.95529 6.48239 4.96018 6.49325 4.96827 6.50143C4.97637 6.5096 4.98713 6.51454 4.99856 6.51532H5.17472C5.24078 6.51532 5.2628 6.54868 5.22977 6.61539L4.96552 7.11572C4.92148 7.18243 4.86643 7.21579 4.69027 7.21579H3.68835C3.68386 7.21514 3.67928 7.21555 3.67498 7.217C3.67068 7.21844 3.66677 7.22088 3.66357 7.22412C3.66036 7.22736 3.65795 7.2313 3.65651 7.23565C3.65508 7.23999 3.65467 7.24461 3.65532 7.24914C3.65532 7.27138 3.66633 7.29362 3.68835 7.29362H4.69027C4.80037 7.29362 4.84441 7.34921 4.80037 7.42704L4.2829 8.40547C4.24987 8.44994 4.17279 8.46106 4.02966 8.46106H3.02774C3.00572 8.46106 2.9837 8.47218 2.9837 8.49442C2.98447 8.50596 2.98936 8.51682 2.99746 8.525C3.00555 8.53318 3.01631 8.53811 3.02774 8.53889H4.01865C4.13976 8.53889 4.21683 8.53889 4.1838 8.6056L3.88653 9.17265C3.83148 9.2616 3.67734 9.2616 3.61128 9.2616H3.29198C3.28749 9.26095 3.28292 9.26136 3.27862 9.26281C3.27432 9.26425 3.27041 9.26669 3.2672 9.26993C3.26399 9.27316 3.26158 9.27711 3.26015 9.28146C3.25872 9.2858 3.25831 9.29042 3.25895 9.29495C3.25895 9.31719 3.26996 9.33943 3.29198 9.33943H3.61128C3.72138 9.33943 3.77643 9.36166 3.75441 9.41726L3.35804 10.1733C3.314 10.24 3.15986 10.24 3.03875 10.24H1.49733C1.4859 10.2408 1.47514 10.2457 1.46705 10.2539C1.45895 10.2621 1.45406 10.273 1.45329 10.2845C1.45329 10.3067 1.47531 10.3179 1.49733 10.3179H3.03875C3.14885 10.3179 3.26996 10.3401 3.22592 10.4179L2.97269 10.896C2.95067 10.9405 2.86259 10.9405 2.73046 10.9405H2.42218C2.41075 10.9413 2.4 10.9462 2.3919 10.9544C2.3838 10.9626 2.37891 10.9734 2.37814 10.985C2.37814 11.0072 2.40016 11.0183 2.42218 11.0183H2.73046C2.80754 11.0183 2.90663 11.0294 2.8736 11.0962L2.70844 11.3964C2.69017 11.4399 2.65945 11.4769 2.62022 11.5026C2.58098 11.5284 2.53503 11.5417 2.48824 11.5409H1.70652C1.42026 11.5409 1.43127 11.741 1.6845 11.741H6.2427C6.37482 11.741 6.38583 11.7188 6.44088 11.6187L7.12351 10.429H10.5807C10.8229 10.429 10.7679 10.24 10.6137 10.24ZM19.4439 8.04968C19.3228 8.16086 19.1246 8.27205 19.0805 8.23869C18.9859 8.15694 18.8825 8.08609 18.7722 8.02744L19.5209 6.64874C19.5364 6.62542 19.558 6.60686 19.5832 6.59509C19.6085 6.58332 19.6364 6.5788 19.6641 6.58203C19.9613 6.58203 20.0494 6.89335 19.9173 7.29362C19.8182 7.57158 19.6641 7.87178 19.4439 8.04968ZM25.4554 9.28383C25.4334 9.19489 25.4004 9.25048 25.3453 9.36166C25.3233 9.40614 25.2682 9.40614 25.2022 9.40614H25.026C25.0162 9.40668 25.0068 9.41013 24.999 9.41607C24.9911 9.42201 24.9852 9.43016 24.982 9.43949C24.9814 9.44548 24.9822 9.45151 24.9842 9.45717C24.9862 9.46283 24.9894 9.46796 24.9936 9.47221C24.9978 9.47646 25.0029 9.47972 25.0085 9.48175C25.0141 9.48378 25.0201 9.48454 25.026 9.48397H25.2022C25.2682 9.48397 25.2682 9.52844 25.2352 9.59515C25.1249 9.84076 24.9803 10.0692 24.8058 10.2734C24.7871 10.2922 24.7647 10.3068 24.74 10.3164C24.7154 10.326 24.6891 10.3303 24.6627 10.329L24.4755 10.3401C24.4535 10.3401 24.4315 10.3512 24.4315 10.3734C24.4322 10.385 24.4371 10.3959 24.4452 10.404C24.4533 10.4122 24.4641 10.4171 24.4755 10.4179H24.6517C24.7508 10.4179 24.6517 10.4735 24.6407 10.4958C24.4205 10.7996 24.1614 11.0726 23.8699 11.3074C23.7865 11.3237 23.7012 11.3274 23.6167 11.3185H23.4295C23.4075 11.3185 23.3965 11.3408 23.3965 11.363C23.3959 11.3675 23.3963 11.3722 23.3977 11.3765C23.3991 11.3808 23.4016 11.3848 23.4048 11.388C23.408 11.3913 23.4119 11.3937 23.4162 11.3951C23.4205 11.3966 23.4251 11.397 23.4295 11.3964L23.6167 11.4075C23.7488 11.4075 23.6497 11.4853 23.6277 11.4964C23.1323 11.9189 22.3836 12.0523 22.0533 12.0079C20.9523 11.8745 20.721 11.0294 20.644 10.6848C20.6067 10.5873 20.5772 10.4869 20.5559 10.3846C20.5229 10.2067 21.0183 10.1622 21.1504 10.2511C21.3596 10.3957 21.8441 10.5402 22.2294 10.5402C22.5818 10.5402 23.2974 10.2845 23.5066 9.67298C23.7268 9.03923 23.1873 8.34988 22.9451 8.10527C22.6478 7.80507 22.3616 7.31586 22.4827 6.96006C22.5707 6.69322 22.7249 6.57091 23.0442 6.57091C23.4736 6.57091 23.7709 6.83776 23.7709 7.22691C23.7709 7.26026 23.7598 7.30474 23.7268 7.30474H23.5837C23.5723 7.30552 23.5615 7.31045 23.5534 7.31863C23.5453 7.32681 23.5404 7.33767 23.5396 7.34921C23.5396 7.37145 23.5617 7.38257 23.5837 7.38257H23.7158C23.7253 7.38193 23.7347 7.38375 23.7433 7.38785C23.7519 7.39195 23.7593 7.3982 23.7648 7.406C23.7703 7.41379 23.7738 7.42288 23.7748 7.4324C23.7759 7.44192 23.7745 7.45156 23.7709 7.4604C23.7488 7.59382 23.7378 7.68277 23.7048 7.81619C23.6938 7.89402 23.8039 7.93849 23.8369 7.8829L24.4975 6.69322C24.5526 6.60427 24.4425 6.58203 24.3654 6.60427C24.1782 6.67098 23.892 6.71545 23.7819 6.63762C23.5515 6.4492 23.2636 6.34706 22.9671 6.34854C22.3836 6.34854 21.9652 6.49308 21.7009 6.9823C21.6789 7.01565 21.6239 7.01565 21.5798 7.01565H21.4587C21.4367 7.01565 21.4257 7.03789 21.4257 7.06013C21.4257 7.08237 21.4367 7.1046 21.4587 7.1046L21.5578 7.09348C21.6019 7.09348 21.6239 7.11572 21.6019 7.1602C21.5908 7.20467 21.5688 7.24914 21.5578 7.29362C21.4952 7.55248 21.5144 7.82467 21.6129 8.07191C21.6239 8.08303 21.6019 8.09415 21.5578 8.09415H21.3817C21.3702 8.09493 21.3595 8.09987 21.3514 8.10805C21.3433 8.11622 21.3384 8.12709 21.3376 8.13863C21.3376 8.16086 21.3596 8.17198 21.3817 8.17198H21.5578C21.6459 8.17198 21.6569 8.1831 21.6899 8.22757C21.789 8.361 21.8881 8.46106 21.9982 8.61672C22.0423 8.6612 21.8771 8.67231 21.789 8.67231H21.0844C21.0727 8.67231 21.0615 8.677 21.0532 8.68534C21.045 8.69368 21.0403 8.70499 21.0403 8.71679C21.0403 8.72858 21.045 8.7399 21.0532 8.74824C21.0615 8.75658 21.0727 8.76126 21.0844 8.76126H21.8C21.9212 8.76126 22.1193 8.75014 22.1414 8.7835C22.3175 8.98363 22.5267 9.29495 22.5597 9.5618C22.5708 9.63963 22.5377 9.67298 22.4496 9.67298H22.3505C22.3461 9.67233 22.3415 9.67274 22.3372 9.67419C22.3329 9.67564 22.329 9.67808 22.3258 9.68131C22.3226 9.68455 22.3201 9.6885 22.3187 9.69284C22.3173 9.69719 22.3169 9.70181 22.3175 9.70634C22.3175 9.72857 22.3285 9.75081 22.3505 9.75081H22.4386C22.5157 9.75081 22.5487 9.76193 22.5377 9.81752C22.4386 10.1177 22.3065 10.3401 21.734 10.329C21.1284 10.329 21.0073 9.73969 21.1835 9.11706C21.2165 8.99475 21.1835 8.93916 21.1284 9.03923L20.71 9.70634C20.6958 9.72108 20.6786 9.73264 20.6596 9.7403C20.6407 9.74796 20.6203 9.75154 20.5999 9.75081H20.5449C20.5332 9.75081 20.522 9.7555 20.5137 9.76384C20.5055 9.77218 20.5008 9.78349 20.5008 9.79529C20.5008 9.80708 20.5055 9.81839 20.5137 9.82673C20.522 9.83507 20.5332 9.83976 20.5449 9.83976C20.5889 9.83976 20.6109 9.862 20.5889 9.89535L20.4348 10.1288C20.1978 9.57703 19.8986 9.05471 19.543 8.57225V8.56113C20.1045 8.52777 20.9192 8.0052 21.0514 7.53823C21.2826 6.71545 20.5008 6.41525 20.0714 6.41525H18.1997C17.9465 6.41525 17.9355 6.61539 18.1667 6.61539C18.2988 6.61539 18.4089 6.72657 18.3539 6.83776L17.9355 7.59382C17.9024 7.66053 17.7813 7.66053 17.6052 7.66053H17.429C17.407 7.66053 17.385 7.67165 17.385 7.69388C17.3857 7.70542 17.3906 7.71629 17.3987 7.72446C17.4068 7.73264 17.4176 7.73758 17.429 7.73836H17.6052C17.7263 7.73836 17.8584 7.73836 17.8144 7.82731L17.3189 8.72791C17.2969 8.77238 17.2308 8.77238 17.0657 8.77238H16.8895C16.8781 8.77316 16.8673 8.7781 16.8592 8.78628C16.8511 8.79445 16.8462 8.80532 16.8455 8.81686C16.8455 8.83909 16.8675 8.85021 16.8895 8.85021H17.0657C17.1978 8.85021 17.2418 8.87245 17.2088 8.93916L16.5482 10.14C16.4711 10.2289 16.383 10.24 16.2179 10.24C15.9757 10.24 15.9867 10.429 16.2289 10.429H17.8364C18.0896 10.429 18.0236 10.24 17.8804 10.24C17.7923 10.24 17.7043 10.0732 17.7593 9.9843L18.5741 8.40547H18.6621C19.0255 8.40547 19.1136 9.01699 19.1796 9.67298C19.1906 9.71746 19.1026 9.72857 18.9154 9.72857H18.464C18.4419 9.72857 18.4199 9.73969 18.4199 9.76193C18.4207 9.77347 18.4256 9.78433 18.4337 9.79251C18.4418 9.80069 18.4525 9.80562 18.464 9.8064H18.9154C19.0365 9.8064 19.2016 9.8064 19.2016 9.85088C19.2227 10.1086 19.2595 10.3649 19.3117 10.6181C19.3338 10.6959 19.2016 10.6848 19.0695 10.6848H18.486C18.4746 10.6855 18.4638 10.6905 18.4557 10.6987C18.4476 10.7068 18.4427 10.7177 18.4419 10.7292C18.4419 10.7515 18.464 10.7626 18.486 10.7626H19.0695C19.2457 10.7626 19.3448 10.7626 19.3558 10.8071C19.598 11.7299 20.677 12.4637 21.712 12.4193C22.6148 12.3859 23.3635 11.8967 23.7488 11.5742C24.2663 11.1629 25.026 10.2845 25.3343 9.65075C25.3893 9.53956 25.4774 9.3839 25.4554 9.28383Z" fill="var(--fill-0, #31006F)"/>
<path id="Vector_5" d="M10.3941 5.20288C10.3244 5.28622 10.2362 5.35179 10.1368 5.39429C10.0373 5.43679 9.9293 5.45502 9.82155 5.44748H9.75549L10.1519 4.65807C10.1622 4.63765 10.178 4.62056 10.1974 4.60877C10.2169 4.59697 10.2393 4.59094 10.262 4.59136C10.317 4.59136 10.306 4.49129 10.2399 4.49129H9.62337C9.56832 4.49129 9.5463 4.59136 9.60135 4.59136C9.6564 4.59136 9.6564 4.64695 9.63438 4.70254L9.28205 5.40301C9.25317 5.43431 9.21408 5.45405 9.17195 5.4586C9.1169 5.48084 9.08387 5.56979 9.14993 5.56979H10.1408C10.2179 5.56979 10.2399 5.54755 10.2509 5.5142L10.4601 5.20288C10.4822 5.16952 10.4271 5.1584 10.3941 5.20288ZM13.3888 4.51353C13.3695 4.52716 13.3464 4.53447 13.3228 4.53447C13.2992 4.53447 13.2761 4.52716 13.2567 4.51353C13.1634 4.44569 13.0523 4.40703 12.9374 4.40234C12.7062 4.40234 12.5411 4.44682 12.431 4.66919C12.3539 4.8582 12.442 5.02498 12.6401 5.11393C12.7392 5.1584 12.8493 5.214 12.8053 5.32518C12.7723 5.40301 12.6842 5.41413 12.5961 5.41413C12.486 5.40301 12.3209 5.32518 12.2988 5.16952C12.2878 5.11393 12.2328 5.12505 12.2108 5.1584L12.0676 5.43637C12.0456 5.48084 12.1007 5.5142 12.1337 5.49196C12.1588 5.46563 12.1916 5.44816 12.2273 5.44216C12.263 5.43615 12.2997 5.44192 12.3319 5.4586C12.4395 5.53409 12.5647 5.58006 12.6952 5.59203C12.7975 5.60081 12.9002 5.58047 12.9917 5.53331C13.0832 5.48614 13.1597 5.41404 13.2127 5.32518C13.3338 5.13617 13.2567 4.94715 13.0475 4.84708C12.9264 4.79149 12.8273 4.69143 12.8824 4.59136C12.9154 4.52465 13.0145 4.53577 13.0695 4.54688C13.1212 4.55492 13.1698 4.57666 13.2104 4.60986C13.251 4.64307 13.2822 4.68656 13.3008 4.7359C13.3031 4.74386 13.3076 4.75098 13.3138 4.75641C13.32 4.76184 13.3276 4.76535 13.3357 4.76652C13.3439 4.76769 13.3522 4.76648 13.3596 4.76302C13.3671 4.75956 13.3734 4.75401 13.3778 4.74702L13.4439 4.56912C13.4659 4.53577 13.4109 4.50241 13.3888 4.51353ZM20.2922 4.80261L20.3803 4.63583C20.4243 4.56912 20.3583 4.49129 20.2592 4.49129H19.0921C19.015 4.49129 19.037 4.58024 19.0701 4.58024C19.1471 4.58024 19.1692 4.66919 19.1251 4.74702L18.7728 5.39189C18.7177 5.4586 18.6847 5.48084 18.6187 5.48084C18.5526 5.48084 18.5306 5.56979 18.6187 5.56979H19.7967C19.8408 5.56979 19.8628 5.55867 19.8738 5.52531L20.039 5.31406C20.083 5.26959 19.9949 5.26959 19.9729 5.29183C19.8948 5.36431 19.8025 5.41954 19.702 5.454C19.6016 5.48846 19.4951 5.50139 19.3894 5.49196H19.2572L19.4114 5.12505H19.4444C19.5545 5.12505 19.6756 5.12505 19.6977 5.20288C19.703 5.20944 19.7097 5.21472 19.7173 5.21835C19.725 5.22198 19.7333 5.22386 19.7417 5.22386C19.7501 5.22386 19.7584 5.22198 19.766 5.21835C19.7737 5.21472 19.7804 5.20944 19.7857 5.20288L19.9179 4.92491C19.9399 4.88044 19.8848 4.88044 19.8628 4.90268C19.8078 5.00274 19.5655 4.98051 19.5105 4.98051H19.4774L19.6756 4.58024H19.8958C19.9609 4.58014 20.0244 4.6004 20.0777 4.63823C20.1309 4.67605 20.1712 4.72959 20.1931 4.79149C20.2041 4.81373 20.2812 4.83597 20.2922 4.80261ZM14.5559 5.00274L14.9413 4.69143V5.00274H14.5559ZM17.3195 4.49129H16.9121C16.824 4.49129 16.846 4.58024 16.8901 4.58024C16.913 4.58072 16.9354 4.58726 16.9551 4.59921C16.9747 4.61116 16.9909 4.62811 17.0021 4.64836C17.0132 4.66861 17.0189 4.69146 17.0186 4.71462C17.0182 4.73779 17.0119 4.76046 17.0002 4.78037L16.835 5.09169L16.4607 4.53577C16.4216 4.49961 16.3705 4.47974 16.3175 4.48017H15.9102C15.8331 4.48017 15.8441 4.56912 15.8881 4.56912C15.9652 4.56912 15.9432 4.63583 15.9212 4.68031L15.6019 5.31406C15.5956 5.32708 15.5856 5.33787 15.5731 5.34503C15.5606 5.35219 15.5463 5.35537 15.532 5.35417C15.5178 5.35297 15.5042 5.34743 15.4931 5.33829C15.4819 5.32915 15.4738 5.31683 15.4698 5.30294L15.2165 4.48017C15.2055 4.44682 15.0624 4.44682 15.0183 4.48017L14.3908 5.00274H14.0715C14.0054 5.00274 13.9724 5.0361 13.9724 5.06946C13.9724 5.10281 14.0054 5.13617 14.0715 5.13617H14.2366L14.0715 5.28071C13.9724 5.34742 13.8733 5.44748 13.8182 5.44748H13.7742C13.7081 5.44748 13.6751 5.4586 13.6751 5.50308C13.6751 5.55867 13.7081 5.56979 13.7632 5.56979H14.2696C14.3687 5.56979 14.3467 5.44748 14.3027 5.44748C14.2834 5.44777 14.2645 5.44215 14.2485 5.43135C14.2324 5.42056 14.22 5.40511 14.2129 5.38704C14.2057 5.36897 14.2041 5.34913 14.2084 5.33014C14.2126 5.31116 14.2225 5.29392 14.2366 5.28071L14.3908 5.13617H14.699C14.8752 5.13617 15.0073 5.34742 14.8972 5.41413L14.8091 5.4586C14.7761 5.48084 14.7541 5.56979 14.8091 5.56979H15.8001C15.8771 5.56979 15.8661 5.46972 15.8331 5.46972C15.723 5.46972 15.778 5.32518 15.8001 5.29183L16.0533 4.79149L16.4166 5.50308C16.4497 5.54755 16.4717 5.56979 16.5047 5.56979H16.6478C16.6651 5.5712 16.6823 5.5664 16.6964 5.55622C16.7106 5.54605 16.7206 5.53116 16.7249 5.5142L17.1433 4.74702C17.2094 4.6136 17.2644 4.58024 17.3525 4.58024C17.3855 4.58024 17.4075 4.49129 17.3195 4.49129ZM11.5501 5.11393C11.44 5.3363 11.2529 5.46972 11.1428 5.41413C11.0217 5.35854 11.0106 5.12505 11.1318 4.90268C11.2419 4.68031 11.418 4.54688 11.5391 4.60248C11.6602 4.66919 11.6602 4.89156 11.5501 5.11393ZM11.4511 4.4357C11.1097 4.4357 10.7464 4.6136 10.6803 4.98051C10.6627 5.06085 10.6635 5.14421 10.6826 5.22421C10.7018 5.3042 10.7388 5.3787 10.7909 5.44202C10.843 5.50533 10.9087 5.55577 10.983 5.58948C11.0574 5.62319 11.1384 5.63927 11.2198 5.6365C11.5942 5.6365 11.9355 5.39189 12.0016 5.0361C12.0676 4.68031 11.8144 4.4357 11.4511 4.4357ZM18.4975 4.98051H18.0571C17.9691 4.98051 17.9911 5.06946 18.0241 5.06946C18.0345 5.06824 18.0451 5.06942 18.055 5.0729C18.0649 5.07638 18.0739 5.08208 18.0813 5.08956C18.0887 5.09705 18.0943 5.10613 18.0978 5.11612C18.1012 5.12612 18.1024 5.13677 18.1012 5.14728C18.1012 5.32518 18.0241 5.39189 17.859 5.39189C17.6938 5.39189 17.6277 5.19176 17.7489 4.93603C17.7925 4.84025 17.8623 4.75904 17.9501 4.70192C18.0378 4.64481 18.1399 4.61417 18.2443 4.6136C18.3874 4.6136 18.5086 4.64695 18.5196 4.78037C18.5306 4.81373 18.5746 4.81373 18.5966 4.78037L18.6957 4.59136C18.7067 4.56912 18.6957 4.54688 18.6627 4.54688C18.6297 4.53577 18.5746 4.58024 18.5306 4.54688C18.4016 4.46488 18.2535 4.41885 18.1012 4.41346C17.9379 4.40305 17.7752 4.44055 17.6326 4.52143C17.49 4.60232 17.3736 4.72314 17.2974 4.86932C17.0882 5.22511 17.3855 5.60314 17.6608 5.60314C17.8149 5.60314 18.0021 5.49196 18.1012 5.44748L18.2113 5.52531C18.2341 5.55075 18.2655 5.56662 18.2994 5.56979H18.3434C18.3874 5.56979 18.3985 5.5142 18.4095 5.48084L18.5856 5.05834C18.6076 5.01386 18.5966 4.98051 18.4975 4.98051ZM24.6302 4.51353C24.6108 4.52716 24.5878 4.53447 24.5641 4.53447C24.5405 4.53447 24.5175 4.52716 24.4981 4.51353C24.4047 4.44569 24.2937 4.40703 24.1788 4.40234C23.9476 4.40234 23.7824 4.44682 23.6723 4.66919C23.5952 4.8582 23.6833 5.02498 23.8925 5.11393C23.9806 5.1584 24.0907 5.214 24.0467 5.32518C24.0136 5.40301 23.9255 5.41413 23.8375 5.41413C23.7274 5.40301 23.5622 5.32518 23.5402 5.16952C23.5292 5.11393 23.4741 5.12505 23.4521 5.1584L23.309 5.43637C23.287 5.48084 23.342 5.5142 23.375 5.49196C23.4001 5.46563 23.433 5.44816 23.4687 5.44216C23.5044 5.43615 23.541 5.44192 23.5732 5.4586C23.6809 5.53409 23.8061 5.58006 23.9366 5.59203C24.1678 5.59203 24.3329 5.52531 24.454 5.32518C24.5751 5.13617 24.5091 4.94715 24.2889 4.84708C24.1678 4.79149 24.0797 4.69143 24.1237 4.59136C24.1568 4.52465 24.2559 4.53577 24.3109 4.54688C24.3626 4.55492 24.4112 4.57666 24.4518 4.60986C24.4924 4.64307 24.5236 4.68656 24.5421 4.7359C24.5444 4.74386 24.5489 4.75098 24.5552 4.75641C24.5614 4.76184 24.569 4.76535 24.5771 4.76652C24.5852 4.76769 24.5935 4.76648 24.601 4.76302C24.6085 4.75956 24.6148 4.75401 24.6192 4.74702L24.6852 4.56912C24.7073 4.53577 24.6522 4.50241 24.6302 4.51353ZM21.5253 5.20288C21.3712 5.39189 21.173 5.44748 20.9418 5.44748H20.8867L21.2831 4.65807C21.2911 4.63588 21.3064 4.61713 21.3264 4.60499C21.3465 4.59284 21.3701 4.58803 21.3932 4.59136C21.4373 4.59136 21.4373 4.49129 21.3712 4.49129H20.7436C20.6886 4.49129 20.6776 4.59136 20.7216 4.59136C20.7766 4.59136 20.7877 4.64695 20.7656 4.70254L20.4023 5.40301C20.3778 5.43403 20.3422 5.45402 20.3032 5.4586C20.2482 5.48084 20.2151 5.56979 20.2702 5.56979H21.2611C21.3382 5.56979 21.3602 5.54755 21.3822 5.5142L21.5804 5.20288C21.6134 5.16952 21.5474 5.1584 21.5253 5.20288ZM23.0227 4.58024C23.087 4.58337 23.1491 4.6049 23.2017 4.6423C23.2543 4.6797 23.2954 4.73145 23.32 4.79149C23.331 4.81373 23.3971 4.83597 23.4191 4.80261L23.5072 4.63583C23.5402 4.56912 23.4851 4.49129 23.3861 4.49129H22.219C22.1309 4.49129 22.1639 4.58024 22.197 4.58024C22.274 4.58024 22.296 4.66919 22.241 4.74702L21.8997 5.39189C21.8827 5.42039 21.8583 5.4437 21.8293 5.45936C21.8002 5.47502 21.7674 5.48244 21.7345 5.48084C21.6795 5.48084 21.6575 5.56979 21.7345 5.56979H22.9126C22.9677 5.56979 22.9897 5.55867 23.0007 5.52531L23.1658 5.31406C23.1989 5.26959 23.1218 5.26959 23.0888 5.29183C23.0131 5.36466 22.9228 5.42023 22.8241 5.45476C22.7253 5.48929 22.6203 5.50197 22.5162 5.49196H22.3731L22.5383 5.12505H22.5713C22.6704 5.12505 22.7915 5.12505 22.8245 5.20288C22.8287 5.20934 22.8344 5.21465 22.8412 5.21832C22.8479 5.22199 22.8554 5.22391 22.8631 5.22391C22.8707 5.22391 22.8782 5.22199 22.885 5.21832C22.8917 5.21465 22.8974 5.20934 22.9016 5.20288L23.0447 4.92491C23.0668 4.88044 23.0007 4.88044 22.9897 4.90268C22.9346 5.00274 22.6924 4.98051 22.6264 4.98051H22.5933L22.8025 4.58024H23.0227Z" fill="var(--fill-0, #31006F)"/>
<path id="Vector_6" d="M14.0388 1.77831C13.4883 1.74495 13.0368 1.72271 12.6515 1.76719C12.7597 1.49782 12.9386 1.26334 13.169 1.08896C13.5241 1.10651 13.8774 1.15111 14.2259 1.22238C15.2058 1.41139 16.7252 2.02291 17.3859 2.90128C16.505 2.312 15.0627 1.85614 14.0388 1.77831ZM12.3983 1.80054C12.0123 1.84484 11.6297 1.91542 11.2532 2.0118C11.1982 1.86725 11.055 1.42251 11 1.27797C11.605 1.10808 12.2343 1.04415 12.8607 1.08896C12.7065 1.21126 12.4533 1.66712 12.3983 1.80054ZM9.63471 2.62331C9.56865 2.51213 9.24935 2.21193 9.07319 2.15634C9.48057 1.84502 10.4164 1.41139 10.7798 1.33357C10.8348 1.44475 11 1.88949 11.055 2.06739C10.7357 2.1341 9.89895 2.44542 9.63471 2.62331ZM18.4428 3.6351C18.3547 3.52391 18.2336 3.30154 17.3528 2.52325C16.0426 1.37804 14.314 0.855469 12.6955 0.855469C11.5064 0.855469 10.4605 1.12231 9.2934 1.76719C7.81804 2.58996 7.21248 3.53503 7.05834 3.72405C6.94823 3.86859 6.93722 3.94642 7.00329 3.99089C7.05834 4.02425 7.15743 3.91306 7.24551 3.79076C7.68591 3.20148 8.26945 2.62331 8.87501 2.27864C9.06218 2.312 9.32643 2.57884 9.42552 2.71226C8.98431 2.98943 8.55798 3.29005 8.14834 3.61286C7.93915 3.77964 7.87309 3.86859 7.92814 3.9353C7.97218 3.99089 8.13733 3.89083 8.26945 3.77964C8.67074 3.45744 9.09383 3.16394 9.53562 2.90128C9.77784 3.17924 9.70077 3.69069 9.61269 3.79076C9.56865 3.85747 9.56865 3.91306 9.61269 3.94642C9.66774 3.97977 9.71178 3.90194 9.77784 3.80188C9.94299 3.56839 9.87693 3.01246 9.74481 2.81233C10.1632 2.54548 10.7577 2.36759 11.1211 2.28976C11.1541 2.34535 11.5945 3.64622 11.6826 3.87971C11.7266 4.01313 11.7707 4.16879 11.8698 4.13543C11.9248 4.12431 11.8918 3.97977 11.8367 3.83523C11.7707 3.65734 11.4404 2.56772 11.3303 2.24528C11.4514 2.17857 12.1781 2.03403 12.3652 2.03403C12.2771 2.51213 12.6074 2.71226 12.9818 2.95687C13.18 3.09029 14.4572 3.82411 14.7214 3.99089C14.8755 4.09096 14.9967 4.14655 15.0297 4.10208C15.0627 4.0576 14.9636 3.94642 14.8205 3.86859C14.7104 3.80188 13.5213 3.10141 13.0258 2.79009C12.6735 2.5566 12.4863 2.32311 12.5634 2.00068C12.6845 1.96732 13.0368 1.96732 13.4112 1.96732C15.9435 1.98956 17.9694 3.44608 18.1896 3.69069C18.3107 3.80188 18.4648 3.90194 18.5309 3.85747C18.5639 3.82411 18.4979 3.69069 18.4428 3.6351ZM18.9933 12.3631C19.0924 12.1964 19.1585 12.0963 19.0814 12.0518C19.0154 12.0073 18.9383 12.1741 18.8502 12.3298C18.5529 12.8412 18.2336 13.2749 17.507 13.942C16.9024 14.4898 16.2049 14.9229 15.4481 15.2206C15.1728 14.4423 14.1269 11.129 14.0938 11.0289C14.0608 10.8844 14.0167 10.851 13.9727 10.8621C13.9177 10.8844 13.9507 10.9622 13.9837 11.0845C14.0057 11.2068 15.2499 15.1428 15.2939 15.2762C15.0517 15.3985 14.0388 15.6876 13.3451 15.7098C12.7176 15.7321 11.9799 15.7098 11.6055 15.6209C11.1761 15.2651 10.1852 13.853 9.81087 13.1081C9.37047 12.2186 9.07319 11.4069 8.99612 11.0623C8.96309 10.8955 8.91905 10.7732 8.83097 10.7954C8.74289 10.8065 8.79794 10.94 8.85299 11.1179C9.05555 11.817 9.32472 12.4947 9.65673 13.1414C10.1522 14.1087 11.022 15.254 11.2752 15.5653C10.3031 15.3514 9.38721 14.9306 8.58875 14.3311C7.79602 13.7307 7.11339 12.9747 6.77207 12.4187C6.71702 12.3187 6.65096 12.1852 6.56288 12.2408C6.51884 12.2742 6.57389 12.3743 6.62894 12.4854C7.1244 13.386 8.33551 14.6647 9.89895 15.3651C11.7046 16.1768 13.6754 16.1323 15.4481 15.443C16.9895 14.8426 18.3327 13.5973 18.9933 12.3631Z" fill="var(--fill-0, #0A0D14)"/>
</g>
<defs>
<clipPath id="clip0_2029_2584">
<rect width="26.7979" height="16.5854" fill="white"/>
</clipPath>
</defs>
</svg>
