<svg width="18" height="18" viewBox="0 0 18 18" fill="none" xmlns="http://www.w3.org/2000/svg">
<path fill-rule="evenodd" clip-rule="evenodd" d="M15.4474 13.7147C16.0745 12.8589 16.5254 11.8872 16.7741 10.8558C15.8527 10.9982 14.9753 11.3468 14.2074 11.8755C14.6474 12.4685 15.0608 13.0883 15.4474 13.7147ZM11.5208 16.5802C12.6608 16.2003 13.6808 15.574 14.5274 14.7677C14.1141 14.0745 13.6741 13.3948 13.1941 12.7485C12.2408 13.768 11.6208 15.1008 11.5274 16.5802H11.5208ZM12.9741 3.75883C12.9741 5.598 12.3741 7.29733 11.3608 8.6835C12.0741 9.36317 12.7474 10.0762 13.3741 10.8358C14.438 10.0855 15.6784 9.62401 16.9741 9.4965C16.9874 9.32983 17.0008 9.16983 17.0008 8.99667C17.0008 5.94467 15.2874 3.29233 12.7741 1.94633C12.9008 2.53267 12.9741 3.13917 12.9741 3.75883ZM3.25406 3.44567C5.86739 4.505 8.27406 5.97133 10.3741 7.78383C11.1741 6.64433 11.6408 5.25817 11.6408 3.75883C11.6408 2.92338 11.4894 2.09483 11.1941 1.31333C10.4941 1.11333 9.76072 1 9.00072 1C6.74072 1 4.70739 1.93967 3.25406 3.44567ZM4.58739 12.1487C3.46072 12.1487 2.39406 11.922 1.41406 11.5223C2.47406 14.701 5.46739 17 9.00072 17C9.40072 17 9.78739 16.96 10.1741 16.9067C10.2008 14.8808 11.0274 13.0417 12.3608 11.6955C11.7808 10.9958 11.1608 10.3362 10.5074 9.70967C8.98739 11.2223 6.90072 12.1553 4.59406 12.1553L4.58739 12.1487Z" fill="#FDB927"/>
<path fill-rule="evenodd" clip-rule="evenodd" d="M9.51357 8.80351C7.39713 6.97775 4.98175 5.53055 2.37357 4.52551C1.5069 5.79818 1.00024 7.33751 1.00024 8.99684C1.00024 9.28351 1.02024 9.57001 1.0469 9.84984C2.0869 10.4562 3.29357 10.8095 4.5869 10.8095C6.50024 10.8095 8.24024 10.043 9.51357 8.79701V8.80351Z" fill="#FDB927"/>
</svg>
