<svg width="16" height="16" viewBox="0 0 16 16" fill="none" xmlns="http://www.w3.org/2000/svg">
<path d="M12.6667 2.66634H12V1.33301H10.6667V2.66634H5.33333V1.33301H4V2.66634H3.33333C2.97971 2.66634 2.64057 2.80682 2.39052 3.05687C2.14048 3.30691 2 3.64605 2 3.99967V12.6663C2 13.02 2.14048 13.3591 2.39052 13.6091C2.64057 13.8592 2.97971 13.9997 3.33333 13.9997H12.6667C13.0203 13.9997 13.3594 13.8592 13.6095 13.6091C13.8595 13.3591 14 13.02 14 12.6663V3.99967C14 3.64605 13.8595 3.30691 13.6095 3.05687C13.3594 2.80682 13.0203 2.66634 12.6667 2.66634ZM12.6667 12.6663H3.33333V5.33301H12.6667V12.6663Z" fill="#868C98"/>
</svg>
