<svg width="24" height="24" viewBox="0 0 24 24" fill="none" xmlns="http://www.w3.org/2000/svg">
<g clip-path="url(#clip0_623_15688)">
<path d="M12 24C18.6274 24 24 18.6274 24 12C24 5.37258 18.6274 0 12 0C5.37258 0 0 5.37258 0 12C0 18.6274 5.37258 24 12 24Z" fill="#0052FF"/>
<path d="M17.52 0H6.48C2.9012 0 0 2.9012 0 6.48V17.52C0 21.0988 2.9012 24 6.48 24H17.52C21.0988 24 24 21.0988 24 17.52V6.48C24 2.9012 21.0988 0 17.52 0Z" fill="#0052FF"/>
<path fill-rule="evenodd" clip-rule="evenodd" d="M11.9996 20.3996C13.1027 20.3996 14.195 20.1823 15.2142 19.7602C16.2333 19.3381 17.1593 18.7193 17.9393 17.9393C18.7193 17.1593 19.3381 16.2333 19.7602 15.2142C20.1823 14.195 20.3996 13.1027 20.3996 11.9996C20.3996 10.8965 20.1823 9.8042 19.7602 8.78507C19.3381 7.76593 18.7193 6.83992 17.9393 6.05991C17.1593 5.2799 16.2333 4.66116 15.2142 4.23902C14.195 3.81688 13.1027 3.59961 11.9996 3.59961C9.77179 3.59961 7.63522 4.48461 6.05991 6.05991C4.48461 7.63522 3.59961 9.77179 3.59961 11.9996C3.59961 14.2274 4.48461 16.364 6.05991 17.9393C7.63522 19.5146 9.77179 20.3996 11.9996 20.3996ZM9.89961 9.25641C9.72902 9.25641 9.56542 9.32417 9.4448 9.4448C9.32417 9.56542 9.25641 9.72902 9.25641 9.89961V14.0996C9.25641 14.4548 9.54441 14.7428 9.89961 14.7428H14.0996C14.4548 14.7428 14.7428 14.4548 14.7428 14.0996V9.89961C14.7428 9.72902 14.675 9.56542 14.5544 9.4448C14.4338 9.32417 14.2702 9.25641 14.0996 9.25641H9.89961Z" fill="white"/>
</g>
<defs>
<clipPath id="clip0_623_15688">
<rect width="24" height="24" fill="white"/>
</clipPath>
</defs>
</svg>
