<svg width="16" height="16" viewBox="0 0 16 16" fill="none" xmlns="http://www.w3.org/2000/svg">
<path d="M9.33398 2V4.66667C9.33398 4.84348 9.40422 5.01305 9.52925 5.13807C9.65427 5.2631 9.82384 5.33333 10.0007 5.33333H12.6673M9.33398 2H4.66732C4.3137 2 3.97456 2.14048 3.72451 2.39052C3.47446 2.64057 3.33398 2.97971 3.33398 3.33333V12.6667C3.33398 13.0203 3.47446 13.3594 3.72451 13.6095C3.97456 13.8595 4.3137 14 4.66732 14H7.66732M9.33398 2L12.6673 5.33333M12.6673 5.33333V8.66667M9.33398 12.6667H14.0007M14.0007 12.6667L12.0007 10.6667M14.0007 12.6667L12.0007 14.6667" stroke="#0D0F13" stroke-width="1.5" stroke-linecap="round" stroke-linejoin="round"/>
</svg>
