<svg width="26" height="26" viewBox="0 0 26 26" fill="none" xmlns="http://www.w3.org/2000/svg">
<path d="M2.1698 14.5709V19.8234L0.714844 18.983V13.7305L2.1698 14.5709Z" fill="#FC3970" fill-opacity="0.1" stroke="#FC3970" stroke-width="0.8" stroke-linecap="round" stroke-linejoin="round"/>
<path d="M22.37 16.367V21.6195L19.791 20.1305V14.8779L20.4555 15.2614L22.37 16.367Z" fill="#FC3970" fill-opacity="0.1" stroke="#FC3970" stroke-width="0.8" stroke-linecap="round" stroke-linejoin="round"/>
<path d="M13.5328 15.65V20.9025L12.0752 20.0621V14.8096L13.5328 15.65Z" fill="#FC3970" fill-opacity="0.1" stroke="#FC3970" stroke-width="0.8" stroke-linecap="round" stroke-linejoin="round"/>
<path d="M18.9691 8.40137L12.8867 14.0557L12.0752 14.8094V16.1856L2.16895 19.823V14.5705L6.02699 13.1549L9.37547 11.9232L9.91381 11.7262L18.9691 8.40137Z" fill="#FC3970" fill-opacity="0.1" stroke="#FC3970" stroke-width="0.8" stroke-linecap="round" stroke-linejoin="round"/>
<path d="M20.9262 13.4229L19.7916 14.8778V19.0168L13.5332 20.9024V15.6499L13.5385 15.6473L18.3997 14.1845L20.9262 13.4229Z" fill="#FC3970" fill-opacity="0.1" stroke="#FC3970" stroke-width="0.8" stroke-linecap="round" stroke-linejoin="round"/>
<path d="M23.0276 14.5552L24.2698 15.2722L22.3711 16.3673L20.4565 15.2617L19.7921 14.8782L20.9266 13.4233L18.4001 14.1849L13.5389 15.6477L13.5336 15.6504L12.076 14.81L12.8876 14.0562L18.97 8.40188L9.91466 11.7267L9.37633 11.9237L6.02784 13.1554L2.1698 14.571L0.714844 13.7306L3.46979 10.7077L3.93201 10.2009L6.60822 7.26471L3.26236 5.33442L5.16115 4.23926L9.91466 6.9837L6.7789 10.4267L5.93852 11.3485L7.43022 10.8023L9.91466 9.89097L23.453 4.9326L24.9816 5.81502L18.1821 12.1154L17.565 12.688L24.0308 10.7471L24.8292 11.2094L25.3939 11.535L23.0276 14.5552Z" fill="#FC3970" fill-opacity="0.1" stroke="#FC3970" stroke-width="0.8" stroke-linecap="round" stroke-linejoin="round"/>
<path d="M9.91363 6.9834V9.89067L7.42919 10.802L5.9375 11.3482L6.77788 10.4264L9.91363 6.9834Z" fill="#FC3970" fill-opacity="0.1" stroke="#FC3970" stroke-width="0.8" stroke-linecap="round" stroke-linejoin="round"/>
<path d="M6.60758 7.26427L3.93136 10.2004L3.46914 10.7073L3.26172 10.5865V5.33398L6.60758 7.26427Z" fill="#FC3970" fill-opacity="0.1" stroke="#FC3970" stroke-width="0.8" stroke-linecap="round" stroke-linejoin="round"/>
<path d="M24.981 5.81445V11.067L24.8287 11.2088L24.0303 10.7466L17.5645 12.6874L18.1816 12.1149L24.981 5.81445Z" fill="#FC3970" fill-opacity="0.1" stroke="#FC3970" stroke-width="0.8" stroke-linecap="round" stroke-linejoin="round"/>
<path d="M25.3936 11.5342V16.7867L24.2696 18.2206V15.2714L23.0273 14.5544L25.3936 11.5342Z" fill="#FC3970" fill-opacity="0.1" stroke="#FC3970" stroke-width="0.8" stroke-linecap="round" stroke-linejoin="round"/>
<path d="M24.2689 15.2715V20.524L22.3701 21.6191V16.3666L24.2689 15.2715Z" fill="#FC3970" fill-opacity="0.1" stroke="#FC3970" stroke-width="0.8" stroke-linecap="round" stroke-linejoin="round"/>
</svg>
