<svg width="26" height="26" viewBox="0 0 26 26" fill="none" xmlns="http://www.w3.org/2000/svg">
<path d="M1.92599 16.7275V16.7584H1.9209C1.9209 16.7584 1.92342 16.7378 1.92599 16.7275Z" fill="#16A34A" fill-opacity="0.1" stroke="#16A34A" stroke-width="0.8" stroke-linecap="round" stroke-linejoin="round"/>
<path d="M3.34077 14.5215L3.29961 14.5447L2.86456 14.797L1.91984 15.3427L1.91211 11.9189C1.91211 11.9704 1.91721 12.0193 1.92493 12.0683C2.02018 12.9306 2.49384 13.7492 3.34077 14.5215Z" fill="#16A34A" fill-opacity="0.1" stroke="#16A34A" stroke-width="0.8" stroke-linecap="round" stroke-linejoin="round"/>
<path d="M13.5041 13.0875C13.5375 13.592 13.1951 14.0528 12.4769 14.4673C12.0804 14.6964 11.6634 14.8534 11.2258 14.9409H11.2232C10.3892 13.8907 10.0159 13.0206 10.1086 12.3307V7.58887C10.1858 8.3251 10.7032 9.22867 11.6557 10.3047C11.6969 10.3485 11.7355 10.3948 11.7767 10.4386C12.8939 11.7 13.4706 12.5829 13.5041 13.0875Z" fill="#16A34A" fill-opacity="0.1" stroke="#16A34A" stroke-width="0.8" stroke-linecap="round" stroke-linejoin="round"/>
<path d="M23.5059 10.3896V15.5382L20.2314 14.7813V9.63281L20.5867 9.71519L23.5059 10.3896Z" fill="#16A34A" fill-opacity="0.1" stroke="#16A34A" stroke-width="0.8" stroke-linecap="round" stroke-linejoin="round"/>
<path d="M20.2315 9.633V12.6578C20.005 12.4261 19.6884 12.197 19.2893 11.9653C18.3806 11.4401 17.4899 11.157 16.6147 11.1132C16.504 11.1081 16.3958 11.1055 16.2903 11.1081C16.1307 10.8892 15.9428 10.6704 15.7291 10.4465C15.2761 9.97795 14.8951 9.55835 14.5913 9.18508C14.1563 8.65478 13.8731 8.21716 13.7392 7.87736C13.5101 7.293 13.7341 6.80647 14.4111 6.41518C15.0057 6.0728 15.7394 5.9235 16.6147 5.96468C17.4899 6.00845 18.3806 6.29161 19.2893 6.81676C20.0745 7.26983 20.5301 7.7229 20.6562 8.1734C20.7798 8.62647 20.6408 9.113 20.2315 9.633Z" fill="#16A34A" fill-opacity="0.1" stroke="#16A34A" stroke-width="0.8" stroke-linecap="round" stroke-linejoin="round"/>
<path d="M1.92599 16.7275V16.7584H1.9209C1.9209 16.7584 1.92342 16.7378 1.92599 16.7275Z" fill="#16A34A" fill-opacity="0.1" stroke="#16A34A" stroke-width="0.8" stroke-linecap="round" stroke-linejoin="round"/>
<path d="M10.1092 7.18262V7.58935C10.0912 7.44777 10.0912 7.31133 10.1092 7.18262Z" fill="#16A34A" fill-opacity="0.1" stroke="#16A34A" stroke-width="0.8" stroke-linecap="round" stroke-linejoin="round"/>
<path d="M24.1904 13.806V13.667V13.806Z" fill="#16A34A" fill-opacity="0.1"/>
<path d="M24.1904 13.806V13.667" stroke="#16A34A" stroke-width="0.8" stroke-linecap="round" stroke-linejoin="round"/>
<path d="M24.1751 8.30432C24.1906 8.43303 24.1957 8.56177 24.1905 8.68791C24.1905 8.75484 24.1854 8.82177 24.1777 8.8887V8.95048C24.1674 9.01484 24.1519 9.09207 24.1313 9.14613C24.0361 9.57088 23.8276 9.98533 23.5058 10.3895L20.5866 9.71501L20.2313 9.63266C20.6406 9.11266 20.7796 8.62613 20.6561 8.17306C20.5299 7.72256 20.0743 7.26947 19.2892 6.8164C18.3805 6.29125 17.4897 6.00811 16.6145 5.96434C15.7392 5.92316 15.0056 6.07246 14.4109 6.41484C13.7339 6.80613 13.5099 7.29263 13.7391 7.87699C13.8729 8.21679 14.1561 8.65442 14.5912 9.18471C14.8949 9.55798 15.2759 9.97761 15.729 10.4461C15.9426 10.6701 16.1305 10.8889 16.2901 11.1077C16.7689 11.7487 17.0161 12.3691 17.0393 12.9637V13.1825C17.0341 13.2701 17.0238 13.355 17.0109 13.4426C16.8796 14.2071 16.4163 14.8841 15.6131 15.4736C15.4303 15.6075 15.2321 15.7388 15.0159 15.8623C14.2874 16.2845 13.5357 16.5909 12.7608 16.7865C11.9937 16.9796 11.2034 17.0594 10.3925 17.0285C8.78618 16.9667 7.25447 16.6269 5.80516 16.0091C5.78972 16.0014 5.7743 15.9962 5.75885 15.9885L3.1743 17.479L1.92575 16.7582V16.7273C1.92575 16.7273 1.92066 16.7453 1.92066 16.7556L0.695312 16.0503L1.92066 15.3423L2.86539 14.7966L3.30044 14.5443L3.3416 14.5212C2.49466 13.7489 2.021 12.9303 1.92575 12.0679C1.91803 12.019 1.91293 11.9701 1.91293 11.9186V11.7049C1.94897 10.9558 2.3557 10.1707 3.12796 9.35461L6.34321 10.1423C5.66875 10.8914 5.37784 11.5891 5.47566 12.2352C5.54259 12.6909 5.83093 13.1285 6.34321 13.5455C6.55687 13.7231 6.81172 13.8956 7.10519 14.0655C7.95212 14.5546 8.85828 14.8584 9.82621 14.9794C10.3127 15.0412 10.7787 15.0257 11.224 14.9408H11.2266C11.6642 14.8532 12.0812 14.6962 12.4776 14.4671C13.1959 14.0526 13.5383 13.5918 13.5048 13.0873C13.4714 12.5827 12.8947 11.6998 11.7774 10.4384C11.7363 10.3946 11.6976 10.3483 11.6565 10.3045C10.704 9.2285 10.1866 8.32491 10.1093 7.58867V7.18194C10.2174 6.35818 10.825 5.62452 11.9345 4.98611C13.2654 4.21641 14.7353 3.86889 16.3416 3.94096C17.9479 4.01562 19.2557 4.28591 20.2648 4.75185L22.8519 3.25879L25.3284 4.69007L22.7438 6.18056C23.6113 6.87303 24.0876 7.57838 24.1751 8.30432Z" fill="#16A34A" fill-opacity="0.1" stroke="#16A34A" stroke-width="0.8" stroke-linecap="round" stroke-linejoin="round"/>
<path d="M25.3277 4.69043V9.83894L24.1899 10.4954V8.68825C24.195 8.56211 24.1899 8.4334 24.1745 8.30469C24.087 7.57874 23.6107 6.8734 22.7432 6.18092L25.3277 4.69043Z" fill="#16A34A" fill-opacity="0.1" stroke="#16A34A" stroke-width="0.8" stroke-linecap="round" stroke-linejoin="round"/>
<path d="M3.1743 17.4795V22.628L0.695312 21.1993V16.0508L1.92066 16.7561L1.92575 16.7587L3.1743 17.4795Z" fill="#16A34A" fill-opacity="0.1" stroke="#16A34A" stroke-width="0.8" stroke-linecap="round" stroke-linejoin="round"/>
<path d="M6.34305 10.1426V13.5457C5.83078 13.1287 5.54243 12.6911 5.4755 12.2355C5.37768 11.5893 5.6686 10.8917 6.34305 10.1426Z" fill="#16A34A" fill-opacity="0.1" stroke="#16A34A" stroke-width="0.8" stroke-linecap="round" stroke-linejoin="round"/>
<path d="M5.75838 15.9883V21.1368L3.17383 22.6273V17.4788L5.75838 15.9883Z" fill="#16A34A" fill-opacity="0.1" stroke="#16A34A" stroke-width="0.8" stroke-linecap="round" stroke-linejoin="round"/>
<path d="M17.0418 18.1252V18.2359C17.0392 18.3569 17.0289 18.4727 17.0109 18.5911C16.8513 19.5282 16.1871 20.3365 15.0158 21.0109C13.5614 21.8501 12.0194 22.2414 10.3925 22.1771C8.7681 22.1153 7.22097 21.7678 5.75879 21.1371V15.9886C5.77423 15.9963 5.78965 16.0014 5.8051 16.0092C7.25441 16.627 8.78612 16.9668 10.3925 17.0286C11.2033 17.0594 11.9936 16.9796 12.7608 16.7866C13.5356 16.5909 14.2873 16.2846 15.0158 15.8624C15.2321 15.7389 15.4303 15.6076 15.613 15.4737C16.4162 14.8842 16.8796 14.2072 17.0109 13.4426C17.0237 13.3551 17.0341 13.2701 17.0392 13.1826V18.1252H17.0418Z" fill="#16A34A" fill-opacity="0.1" stroke="#16A34A" stroke-width="0.8" stroke-linecap="round" stroke-linejoin="round"/>
<path d="M24.1906 10.4956L24.1804 10.5008L24.1906 13.577V13.6671C24.2138 14.3158 23.9847 14.9388 23.5059 15.5386V10.3901C23.8276 9.9859 24.0362 9.57145 24.1314 9.14669C24.152 9.09263 24.1675 9.01541 24.1778 8.95105V8.88927C24.1855 8.82234 24.1906 8.75541 24.1906 8.68848V10.4956Z" fill="#16A34A" fill-opacity="0.1" stroke="#16A34A" stroke-width="0.8" stroke-linecap="round" stroke-linejoin="round"/>
<path d="M24.1904 13.5765V10.4951V13.5765Z" fill="#16A34A" fill-opacity="0.1"/>
<path d="M24.1904 13.5765V10.4951" stroke="#16A34A" stroke-width="0.8" stroke-linecap="round" stroke-linejoin="round"/>
</svg>
