<svg width="14" height="14" viewBox="0 0 14 14" fill="none" xmlns="http://www.w3.org/2000/svg">
<g clip-path="url(#clip0_17_16859)">
<path d="M7.00033 4.08341H4.37533C3.98855 4.08341 3.61762 3.92977 3.34413 3.65628C3.07064 3.38279 2.91699 3.01186 2.91699 2.62508C2.91699 2.23831 3.07064 1.86737 3.34413 1.59388C3.61762 1.32039 3.98855 1.16675 4.37533 1.16675C6.41699 1.16675 7.00033 4.08341 7.00033 4.08341ZM7.00033 4.08341H9.62533C10.0121 4.08341 10.383 3.92977 10.6565 3.65628C10.93 3.38279 11.0837 3.01186 11.0837 2.62508C11.0837 2.23831 10.93 1.86737 10.6565 1.59388C10.383 1.32039 10.0121 1.16675 9.62533 1.16675C7.58366 1.16675 7.00033 4.08341 7.00033 4.08341ZM7.00033 4.08341L7.00033 12.8334M1.16699 8.16675H12.8337M1.16699 5.95008L1.16699 10.9667C1.16699 11.6201 1.16699 11.9468 1.29415 12.1964C1.406 12.4159 1.58448 12.5944 1.804 12.7063C2.05357 12.8334 2.38026 12.8334 3.03366 12.8334L10.967 12.8334C11.6204 12.8334 11.9471 12.8334 12.1966 12.7063C12.4162 12.5944 12.5946 12.4159 12.7065 12.1964C12.8337 11.9468 12.8337 11.6201 12.8337 10.9667V5.95008C12.8337 5.29669 12.8337 4.96999 12.7065 4.72043C12.5946 4.5009 12.4162 4.32243 12.1966 4.21058C11.9471 4.08342 11.6204 4.08342 10.967 4.08342L3.03366 4.08342C2.38026 4.08342 2.05357 4.08341 1.804 4.21057C1.58448 4.32243 1.406 4.5009 1.29415 4.72043C1.16699 4.96999 1.16699 5.29669 1.16699 5.95008Z" stroke="#B47818" stroke-width="1.4" stroke-linecap="round" stroke-linejoin="round"/>
</g>
<defs>
<clipPath id="clip0_17_16859">
<rect width="14" height="14" fill="white"/>
</clipPath>
</defs>
</svg>
