<svg width="12" height="12" viewBox="0 0 12 12" fill="none" xmlns="http://www.w3.org/2000/svg">
<path d="M0.625 1.25C0.625 1.08424 0.690848 0.925269 0.808058 0.808058C0.925269 0.690848 1.08424 0.625 1.25 0.625H3.75C3.91576 0.625 4.07473 0.690848 4.19194 0.808058C4.30915 0.925269 4.375 1.08424 4.375 1.25V3.75C4.375 3.91576 4.30915 4.07473 4.19194 4.19194C4.07473 4.30915 3.91576 4.375 3.75 4.375H1.25C1.08424 4.375 0.925269 4.30915 0.808058 4.19194C0.690848 4.07473 0.625 3.91576 0.625 3.75V1.25Z" stroke="#7E7E8C" stroke-width="1.25" stroke-linecap="round" stroke-linejoin="round"/>
<path d="M6.875 1.25C6.875 1.08424 6.94085 0.925269 7.05806 0.808058C7.17527 0.690848 7.33424 0.625 7.5 0.625H10C10.1658 0.625 10.3247 0.690848 10.4419 0.808058C10.5592 0.925269 10.625 1.08424 10.625 1.25V3.75C10.625 3.91576 10.5592 4.07473 10.4419 4.19194C10.3247 4.30915 10.1658 4.375 10 4.375H7.5C7.33424 4.375 7.17527 4.30915 7.05806 4.19194C6.94085 4.07473 6.875 3.91576 6.875 3.75V1.25Z" stroke="#7E7E8C" stroke-width="1.25" stroke-linecap="round" stroke-linejoin="round"/>
<path d="M0.625 7.5C0.625 7.33424 0.690848 7.17527 0.808058 7.05806C0.925269 6.94085 1.08424 6.875 1.25 6.875H3.75C3.91576 6.875 4.07473 6.94085 4.19194 7.05806C4.30915 7.17527 4.375 7.33424 4.375 7.5V10C4.375 10.1658 4.30915 10.3247 4.19194 10.4419C4.07473 10.5592 3.91576 10.625 3.75 10.625H1.25C1.08424 10.625 0.925269 10.5592 0.808058 10.4419C0.690848 10.3247 0.625 10.1658 0.625 10V7.5Z" stroke="#7E7E8C" stroke-width="1.25" stroke-linecap="round" stroke-linejoin="round"/>
<path d="M6.875 7.5C6.875 7.33424 6.94085 7.17527 7.05806 7.05806C7.17527 6.94085 7.33424 6.875 7.5 6.875H10C10.1658 6.875 10.3247 6.94085 10.4419 7.05806C10.5592 7.17527 10.625 7.33424 10.625 7.5V10C10.625 10.1658 10.5592 10.3247 10.4419 10.4419C10.3247 10.5592 10.1658 10.625 10 10.625H7.5C7.33424 10.625 7.17527 10.5592 7.05806 10.4419C6.94085 10.3247 6.875 10.1658 6.875 10V7.5Z" stroke="#7E7E8C" stroke-width="1.25" stroke-linecap="round" stroke-linejoin="round"/>
</svg>
