<svg width="26" height="26" viewBox="0 0 26 26" fill="none" xmlns="http://www.w3.org/2000/svg">
<path d="M16.0015 18.2095V22.8524L12.1572 20.6331V15.9902L14.2558 17.202L16.0015 18.2095Z" fill="#F1AF58" fill-opacity="0.1" stroke="#F1AF58" stroke-width="0.8" stroke-linecap="round" stroke-linejoin="round"/>
<path d="M11.1292 3.26367L0.620117 9.32956L4.46675 11.5488L14.9735 5.48296L11.1292 3.26367Z" fill="#F1AF58" fill-opacity="0.1" stroke="#F1AF58" stroke-width="0.8" stroke-linecap="round" stroke-linejoin="round"/>
<path d="M22.6896 14.3492L16.0015 18.2097L14.2558 17.2022L12.1572 15.9904L18.8429 12.1299L20.9439 13.3417L22.6896 14.3492Z" fill="#F1AF58" fill-opacity="0.1" stroke="#F1AF58" stroke-width="0.8" stroke-linecap="round" stroke-linejoin="round"/>
<path d="M25.5197 6.05657L10.233 14.8803L8.48492 13.8705L6.38867 12.661L12.8748 8.91425L14.9734 7.70479L21.673 3.83496L25.5197 6.05657Z" fill="#F1AF58" fill-opacity="0.1" stroke="#F1AF58" stroke-width="0.8" stroke-linecap="round" stroke-linejoin="round"/>
<path d="M22.69 14.3486V18.9915L16.002 22.852V18.2092L22.69 14.3486Z" fill="#F1AF58" fill-opacity="0.1" stroke="#F1AF58" stroke-width="0.8" stroke-linecap="round" stroke-linejoin="round"/>
<path d="M25.52 6.05664V10.6995L20.9445 13.3413L18.8436 12.1295L12.1579 15.99V18.4113L10.2334 19.5232V14.8804L25.52 6.05664Z" fill="#F1AF58" fill-opacity="0.1" stroke="#F1AF58" stroke-width="0.8" stroke-linecap="round" stroke-linejoin="round"/>
<path d="M10.233 14.8804V19.5233L6.38867 17.304V12.6611L8.48492 13.8706L10.233 14.8804Z" fill="#F1AF58" fill-opacity="0.1" stroke="#F1AF58" stroke-width="0.8" stroke-linecap="round" stroke-linejoin="round"/>
<path d="M14.9736 5.4834V7.70501L12.875 8.91447L6.38889 12.6613V15.0825L4.4668 16.1922V11.5493L14.9736 5.4834Z" fill="#F1AF58" fill-opacity="0.1" stroke="#F1AF58" stroke-width="0.8" stroke-linecap="round" stroke-linejoin="round"/>
<path d="M4.46675 11.5494V16.1922L0.620117 13.9729V9.33008L4.46675 11.5494Z" fill="#F1AF58" fill-opacity="0.1" stroke="#F1AF58" stroke-width="0.8" stroke-linecap="round" stroke-linejoin="round"/>
</svg>
