<svg width="18" height="18" viewBox="0 0 18 18" fill="none" xmlns="http://www.w3.org/2000/svg">
<path d="M3 3.75C3 3.55109 3.07902 3.36032 3.21967 3.21967C3.36032 3.07902 3.55109 3 3.75 3H6.75C6.94891 3 7.13968 3.07902 7.28033 3.21967C7.42098 3.36032 7.5 3.55109 7.5 3.75V6.75C7.5 6.94891 7.42098 7.13968 7.28033 7.28033C7.13968 7.42098 6.94891 7.5 6.75 7.5H3.75C3.55109 7.5 3.36032 7.42098 3.21967 7.28033C3.07902 7.13968 3 6.94891 3 6.75V3.75Z" stroke="white" stroke-width="1.5" stroke-linecap="round" stroke-linejoin="round"/>
<path d="M10.5 3.75C10.5 3.55109 10.579 3.36032 10.7197 3.21967C10.8603 3.07902 11.0511 3 11.25 3H14.25C14.4489 3 14.6397 3.07902 14.7803 3.21967C14.921 3.36032 15 3.55109 15 3.75V6.75C15 6.94891 14.921 7.13968 14.7803 7.28033C14.6397 7.42098 14.4489 7.5 14.25 7.5H11.25C11.0511 7.5 10.8603 7.42098 10.7197 7.28033C10.579 7.13968 10.5 6.94891 10.5 6.75V3.75Z" stroke="white" stroke-width="1.5" stroke-linecap="round" stroke-linejoin="round"/>
<path d="M3 11.25C3 11.0511 3.07902 10.8603 3.21967 10.7197C3.36032 10.579 3.55109 10.5 3.75 10.5H6.75C6.94891 10.5 7.13968 10.579 7.28033 10.7197C7.42098 10.8603 7.5 11.0511 7.5 11.25V14.25C7.5 14.4489 7.42098 14.6397 7.28033 14.7803C7.13968 14.921 6.94891 15 6.75 15H3.75C3.55109 15 3.36032 14.921 3.21967 14.7803C3.07902 14.6397 3 14.4489 3 14.25V11.25Z" stroke="white" stroke-width="1.5" stroke-linecap="round" stroke-linejoin="round"/>
<path d="M10.5 11.25C10.5 11.0511 10.579 10.8603 10.7197 10.7197C10.8603 10.579 11.0511 10.5 11.25 10.5H14.25C14.4489 10.5 14.6397 10.579 14.7803 10.7197C14.921 10.8603 15 11.0511 15 11.25V14.25C15 14.4489 14.921 14.6397 14.7803 14.7803C14.6397 14.921 14.4489 15 14.25 15H11.25C11.0511 15 10.8603 14.921 10.7197 14.7803C10.579 14.6397 10.5 14.4489 10.5 14.25V11.25Z" stroke="white" stroke-width="1.5" stroke-linecap="round" stroke-linejoin="round"/>
</svg>
