<svg width="12" height="12" viewBox="0 0 12 12" fill="none" xmlns="http://www.w3.org/2000/svg">
<path d="M0.625 1.875C0.625 1.54348 0.756696 1.22554 0.991116 0.991116C1.22554 0.756696 1.54348 0.625 1.875 0.625H9.375C9.70652 0.625 10.0245 0.756696 10.2589 0.991116C10.4933 1.22554 10.625 1.54348 10.625 1.875V3.125C10.625 3.45652 10.4933 3.77446 10.2589 4.00888C10.0245 4.2433 9.70652 4.375 9.375 4.375H1.875C1.54348 4.375 1.22554 4.2433 0.991116 4.00888C0.756696 3.77446 0.625 3.45652 0.625 3.125V1.875Z" stroke="#7E7E8C" stroke-width="1.25" stroke-linecap="round" stroke-linejoin="round"/>
<path d="M0.625 8.125C0.625 7.79348 0.756696 7.47554 0.991116 7.24112C1.22554 7.0067 1.54348 6.875 1.875 6.875H9.375C9.70652 6.875 10.0245 7.0067 10.2589 7.24112C10.4933 7.47554 10.625 7.79348 10.625 8.125V9.375C10.625 9.70652 10.4933 10.0245 10.2589 10.2589C10.0245 10.4933 9.70652 10.625 9.375 10.625H1.875C1.54348 10.625 1.22554 10.4933 0.991116 10.2589C0.756696 10.0245 0.625 9.70652 0.625 9.375V8.125Z" stroke="#7E7E8C" stroke-width="1.25" stroke-linecap="round" stroke-linejoin="round"/>
</svg>
