<svg width="24" height="24" viewBox="0 0 24 24" fill="none" xmlns="http://www.w3.org/2000/svg">
<path d="M20.4515 3.02246L13.127 8.46296L14.4815 5.25296L20.4515 3.02246Z" fill="#E2761B" stroke="#E2761B" stroke-width="0.151875" stroke-linecap="round" stroke-linejoin="round"/>
<path d="M3.5418 3.02246L10.8078 8.51471L9.51931 5.25296L3.5418 3.02246ZM17.8158 15.633L15.8658 18.6217L20.0396 19.77L21.2396 15.699L17.8158 15.633ZM2.76855 15.699L3.96105 19.77L8.13555 18.6217L6.1848 15.633L2.76855 15.699Z" fill="#E4761B" stroke="#E4761B" stroke-width="0.151875" stroke-linecap="round" stroke-linejoin="round"/>
<path d="M7.89958 10.5827L6.73633 12.343L10.8808 12.5267L10.7338 8.07323L7.89958 10.5827ZM16.0933 10.5835L13.2223 8.02148L13.1263 12.5275L17.2633 12.343L16.0933 10.5835ZM8.13508 18.6227L10.6236 17.4077L8.47333 15.7292L8.13508 18.6227ZM13.3693 17.4077L15.8646 18.6227L15.5188 15.7292L13.3693 17.4077Z" fill="#E4761B" stroke="#E4761B" stroke-width="0.151875" stroke-linecap="round" stroke-linejoin="round"/>
<path d="M15.8652 18.6222L13.37 17.4072L13.5687 19.0347L13.5462 19.7187L15.8652 18.6222ZM8.13574 18.6222L10.4547 19.7187L10.4397 19.034L10.6242 17.4072L8.13574 18.6222Z" fill="#D7C1B3" stroke="#D7C1B3" stroke-width="0.151875" stroke-linecap="round" stroke-linejoin="round"/>
<path d="M10.491 14.654L8.41504 14.0428L9.87979 13.373L10.491 14.654ZM13.5015 14.654L14.1128 13.373L15.585 14.0428L13.5015 14.654Z" fill="#233447" stroke="#233447" stroke-width="0.151875" stroke-linecap="round" stroke-linejoin="round"/>
<path d="M8.13532 18.6215L8.48782 15.6328L6.18457 15.6988L8.13532 18.6215ZM15.5116 15.6328L15.8648 18.6215L17.8156 15.6988L15.5116 15.6328ZM17.2636 12.3425L13.1266 12.5263L13.5091 14.654L14.1203 13.373L15.5926 14.0428L17.2636 12.3425ZM8.41507 14.0428L9.88732 13.373L10.4911 14.654L10.8811 12.5263L6.73657 12.3418L8.41507 14.0428Z" fill="#CD6116" stroke="#CD6116" stroke-width="0.151875" stroke-linecap="round" stroke-linejoin="round"/>
<path d="M6.73633 12.3425L8.47333 15.7288L8.41483 14.0428L6.73633 12.3425ZM15.5923 14.0428L15.5188 15.7288L17.2633 12.3418L15.5923 14.0428ZM10.8808 12.5263L10.4908 14.654L10.9768 17.1643L11.0871 13.859L10.8808 12.5263ZM13.1263 12.5263L12.9276 13.8515L13.0161 17.1643L13.5088 14.654L13.1263 12.5263Z" fill="#E4751F" stroke="#E4751F" stroke-width="0.151875" stroke-linecap="round" stroke-linejoin="round"/>
<path d="M13.509 14.6542L13.0163 17.1645L13.3688 17.4075L15.519 15.729L15.5925 14.043L13.509 14.6542ZM8.41504 14.043L8.47354 15.729L10.623 17.4075L10.977 17.1645L10.491 14.6542L8.41504 14.043Z" fill="#F6851B" stroke="#F6851B" stroke-width="0.151875" stroke-linecap="round" stroke-linejoin="round"/>
<path d="M13.547 19.7193L13.5687 19.0346L13.385 18.8726H10.6092L10.4397 19.0346L10.4547 19.7193L8.13574 18.6221L8.94574 19.2851L10.5875 20.4258H13.4067L15.056 19.2851L15.866 18.6221L13.547 19.7193Z" fill="#C0AD9E" stroke="#C0AD9E" stroke-width="0.151875" stroke-linecap="round" stroke-linejoin="round"/>
<path d="M13.3697 17.4071L13.0165 17.1641H10.9765L10.624 17.4071L10.4395 19.0338L10.609 18.8718H13.384L13.5685 19.0338L13.3697 17.4071Z" fill="#161616" stroke="#161616" stroke-width="0.151875" stroke-linecap="round" stroke-linejoin="round"/>
<path d="M20.7595 8.81621L21.3858 5.81246L20.4505 3.02246L13.369 8.27921L16.0923 10.5832L19.9428 11.7097L20.797 10.716L20.4288 10.4505L21.0175 9.91346L20.5615 9.55946L21.1503 9.11096L20.7595 8.81621ZM2.61328 5.81246L3.23878 8.81621L2.84128 9.11096L3.43003 9.55946L2.98153 9.91346L3.57028 10.4505L3.20278 10.716L4.04878 11.7097L7.89928 10.5832L10.6225 8.27921L3.54103 3.02246L2.61328 5.81246Z" fill="#763D16" stroke="#763D16" stroke-width="0.151875" stroke-linecap="round" stroke-linejoin="round"/>
<path d="M19.9436 11.7089L16.0931 10.5824L17.2638 12.3419L15.5193 15.7289L17.8158 15.6989H21.2396L19.9436 11.7089ZM7.90005 10.5824L4.04955 11.7089L2.76855 15.6989H6.1848L8.4738 15.7289L6.7368 12.3419L7.90005 10.5824ZM13.1268 12.5264L13.3698 8.27843L14.4888 5.25293H9.51931L10.6241 8.27843L10.8813 12.5264L10.9698 13.8659L10.9773 17.1644H13.0166L13.0316 13.8659L13.1268 12.5264Z" fill="#F6851B" stroke="#F6851B" stroke-width="0.151875" stroke-linecap="round" stroke-linejoin="round"/>
</svg>
