<svg width="24" height="24" viewBox="0 0 24 24" fill="none" xmlns="http://www.w3.org/2000/svg">
<path d="M5.12973 19.2752C7.42718 19.2752 9.15273 17.2772 10.1828 15.6998C10.0598 16.0304 9.99395 16.3796 9.98809 16.7323C9.98809 17.6544 10.5175 18.3114 11.5615 18.3114C12.9949 18.3114 14.5265 17.0539 15.3202 15.6989C15.2669 15.8758 15.2388 16.0592 15.2367 16.2439C15.2367 16.8861 15.5984 17.2911 16.3364 17.2911C18.6608 17.2911 21 13.1708 21 9.56668C21 6.75868 19.5796 4.28613 16.0165 4.28613C9.75164 4.28613 3 11.941 3 16.8861C3 18.8285 4.044 19.2752 5.12973 19.2752ZM13.8581 9.25904C13.8581 8.56113 14.2484 8.07186 14.8186 8.07186C15.375 8.07186 15.7653 8.56113 15.7653 9.25904C15.7653 9.95695 15.3758 10.461 14.8186 10.461C14.2484 10.461 13.8581 9.95777 13.8581 9.25904ZM16.8371 9.25904C16.8371 8.56113 17.2274 8.07186 17.7976 8.07186C18.354 8.07186 18.7443 8.56113 18.7443 9.25904C18.7443 9.95695 18.3548 10.461 17.7976 10.461C17.2274 10.461 16.8371 9.95777 16.8371 9.25904Z" fill="#AB9FF2"/>
</svg>
