<svg width="26" height="26" viewBox="0 0 26 26" fill="none" xmlns="http://www.w3.org/2000/svg">
<path d="M21.6668 14.8959C21.6668 14.6804 21.5812 14.4738 21.4289 14.3214C21.2765 14.169 21.0698 14.0834 20.8543 14.0834H17.6043C17.3888 14.0834 17.1822 14.169 17.0298 14.3214C16.8774 14.4738 16.7918 14.6804 16.7918 14.8959V22.2084H15.1668V4.60425C15.1668 3.81558 15.1647 3.30425 15.1148 2.92941C15.0672 2.57733 14.9902 2.46683 14.9285 2.40508C14.8667 2.34333 14.7562 2.26641 14.4042 2.21875C14.0282 2.16891 13.518 2.16675 12.7293 2.16675C11.9407 2.16675 11.4293 2.16891 11.0545 2.21875C10.7024 2.26641 10.5919 2.34333 10.5302 2.40508C10.4684 2.46683 10.3915 2.57733 10.3438 2.92941C10.294 3.30533 10.2918 3.81558 10.2918 4.60425V22.2084H8.66683V9.47925C8.66683 9.26376 8.58123 9.0571 8.42885 8.90472C8.27648 8.75235 8.06982 8.66675 7.85433 8.66675H4.60433C4.38884 8.66675 4.18218 8.75235 4.0298 8.90472C3.87743 9.0571 3.79183 9.26376 3.79183 9.47925V22.2084H1.896C1.68051 22.2084 1.47385 22.294 1.32147 22.4464C1.1691 22.5988 1.0835 22.8054 1.0835 23.0209C1.0835 23.2364 1.1691 23.4431 1.32147 23.5954C1.47385 23.7478 1.68051 23.8334 1.896 23.8334H23.5627C23.7781 23.8334 23.9848 23.7478 24.1372 23.5954C24.2896 23.4431 24.3752 23.2364 24.3752 23.0209C24.3752 22.8054 24.2896 22.5988 24.1372 22.4464C23.9848 22.294 23.7781 22.2084 23.5627 22.2084H21.6668V14.8959Z" fill="url(#paint0_linear_17_2011)"/>
<defs>
<linearGradient id="paint0_linear_17_2011" x1="12.7293" y1="2.16675" x2="12.7293" y2="23.8334" gradientUnits="userSpaceOnUse">
<stop stop-color="white"/>
<stop offset="1" stop-color="#999999"/>
</linearGradient>
</defs>
</svg>
