<svg width="10" height="9" viewBox="0 0 10 9" fill="none" xmlns="http://www.w3.org/2000/svg">
<path d="M3.5 8V5C3.5 4.86739 3.44732 4.74021 3.35355 4.64645C3.25979 4.55268 3.13261 4.5 3 4.5H1C0.867392 4.5 0.740215 4.55268 0.646447 4.64645C0.552678 4.74021 0.5 4.86739 0.5 5V8C0.5 8.13261 0.552678 8.25979 0.646447 8.35355C0.740215 8.44732 0.867392 8.5 1 8.5M3.5 8C3.5 8.13261 3.44732 8.25979 3.35355 8.35355C3.25979 8.44732 3.13261 8.5 3 8.5H1M3.5 8C3.5 8.13261 3.55268 8.25979 3.64645 8.35355C3.74021 8.44732 3.86739 8.5 4 8.5H6C6.13261 8.5 6.25979 8.44732 6.35355 8.35355C6.44732 8.25979 6.5 8.13261 6.5 8M3.5 8V3C3.5 2.86739 3.55268 2.74021 3.64645 2.64645C3.74021 2.55268 3.86739 2.5 4 2.5H6C6.13261 2.5 6.25979 2.55268 6.35355 2.64645C6.44732 2.74021 6.5 2.86739 6.5 3V8M1 8.5H8M6.5 8C6.5 8.13261 6.55268 8.25979 6.64645 8.35355C6.74021 8.44732 6.86739 8.5 7 8.5H9C9.13261 8.5 9.25979 8.44732 9.35355 8.35355C9.44732 8.25979 9.5 8.13261 9.5 8V1C9.5 0.867392 9.44732 0.740215 9.35355 0.646447C9.25979 0.552679 9.13261 0.5 9 0.5H7C6.86739 0.5 6.74021 0.552679 6.64645 0.646447C6.55268 0.740215 6.5 0.867392 6.5 1V8Z" stroke="#7E7E8C" stroke-linecap="round" stroke-linejoin="round"/>
</svg>
