<svg width="16" height="16" viewBox="0 0 16 16" fill="none" xmlns="http://www.w3.org/2000/svg">
<path d="M11.3337 5.33366V3.33366C11.3337 3.15685 11.2634 2.98728 11.1384 2.86225C11.0134 2.73723 10.8438 2.66699 10.667 2.66699H4.00033C3.6467 2.66699 3.30756 2.80747 3.05752 3.05752C2.80747 3.30756 2.66699 3.6467 2.66699 4.00033M2.66699 4.00033C2.66699 4.35395 2.80747 4.69309 3.05752 4.94313C3.30756 5.19318 3.6467 5.33366 4.00033 5.33366H12.0003C12.1771 5.33366 12.3467 5.4039 12.4717 5.52892C12.5968 5.65395 12.667 5.82351 12.667 6.00033V8.00033M2.66699 4.00033V12.0003C2.66699 12.3539 2.80747 12.6931 3.05752 12.9431C3.30756 13.1932 3.6467 13.3337 4.00033 13.3337H12.0003C12.1771 13.3337 12.3467 13.2634 12.4717 13.1384C12.5968 13.0134 12.667 12.8438 12.667 12.667V10.667M13.3337 8.00033V10.667H10.667C10.3134 10.667 9.97423 10.5265 9.72418 10.2765C9.47413 10.0264 9.33366 9.68728 9.33366 9.33366C9.33366 8.98004 9.47413 8.6409 9.72418 8.39085C9.97423 8.1408 10.3134 8.00033 10.667 8.00033H13.3337Z" stroke="white" stroke-width="1.5" stroke-linecap="round" stroke-linejoin="round"/>
</svg>
