<svg width="24" height="24" viewBox="0 0 24 24" fill="none" xmlns="http://www.w3.org/2000/svg">
<path d="M4.91331 7.4213C5.84391 6.4905 6.94876 5.75214 8.16476 5.24839C9.38075 4.74463 10.6841 4.48535 12.0003 4.48535C13.3165 4.48535 14.6198 4.74463 15.8358 5.24839C17.0518 5.75214 18.1566 6.4905 19.0872 7.4213L19.5581 7.89214C19.6518 7.98601 19.7044 8.11321 19.7044 8.24583C19.7044 8.37844 19.6518 8.50564 19.5581 8.59951L17.9466 10.2121C17.8996 10.2588 17.836 10.285 17.7698 10.285C17.7035 10.285 17.6399 10.2588 17.5929 10.2121L16.9441 9.5633C15.6329 8.25217 13.8546 7.51559 12.0003 7.51559C10.146 7.51559 8.36765 8.25217 7.05642 9.5633L6.36231 10.2574C6.31531 10.3041 6.25174 10.3303 6.18547 10.3303C6.11921 10.3303 6.05563 10.3041 6.00863 10.2574L4.39605 8.64593C4.30236 8.55207 4.24975 8.42487 4.24975 8.29225C4.24975 8.15963 4.30236 8.03243 4.39605 7.93856L4.91331 7.4213ZM22.4196 10.7537L23.8532 12.1872C23.8997 12.2337 23.9366 12.2889 23.9618 12.3497C23.987 12.4105 24 12.4756 24 12.5414C24 12.6072 23.987 12.6724 23.9618 12.7332C23.9366 12.794 23.8997 12.8492 23.8532 12.8957L17.3873 19.3615C17.3408 19.408 17.2856 19.445 17.2248 19.4702C17.1641 19.4954 17.0989 19.5083 17.0331 19.5083C16.9673 19.5083 16.9022 19.4954 16.8414 19.4702C16.7806 19.445 16.7254 19.408 16.6789 19.3615L12.0887 14.7735C12.0771 14.7619 12.0633 14.7527 12.0481 14.7464C12.033 14.7401 12.0167 14.7368 12.0003 14.7368C11.9839 14.7368 11.9676 14.7401 11.9524 14.7464C11.9372 14.7527 11.9235 14.7619 11.9119 14.7735L7.32279 19.3626C7.27627 19.4093 7.22098 19.4464 7.1601 19.4717C7.09921 19.497 7.03393 19.51 6.968 19.51C6.90207 19.51 6.83679 19.497 6.7759 19.4717C6.71502 19.4464 6.65973 19.4093 6.61321 19.3626L0.147401 12.8968C0.100683 12.8503 0.0636114 12.795 0.0383163 12.7341C0.0130211 12.6732 0 12.6079 0 12.542C0 12.4761 0.0130211 12.4108 0.0383163 12.3499C0.0636114 12.289 0.100683 12.2337 0.147401 12.1872L1.58093 10.7537C1.62743 10.7071 1.68265 10.6702 1.74344 10.645C1.80422 10.6198 1.86937 10.6068 1.93517 10.6068C2.00097 10.6068 2.06612 10.6198 2.1269 10.645C2.18769 10.6702 2.24291 10.7071 2.28941 10.7537L6.87958 15.3427C6.89118 15.3544 6.90496 15.3636 6.92013 15.3699C6.93531 15.3762 6.95157 15.3794 6.968 15.3794C6.98443 15.3794 7.00069 15.3762 7.01587 15.3699C7.03104 15.3636 7.04482 15.3544 7.05642 15.3427L11.6455 10.7537C11.692 10.7071 11.7472 10.6702 11.808 10.645C11.8688 10.6198 11.9339 10.6068 11.9997 10.6068C12.0655 10.6068 12.1307 10.6198 12.1915 10.645C12.2522 10.6702 12.3075 10.7071 12.354 10.7537L16.9441 15.3427C16.9557 15.3544 16.9695 15.3636 16.9847 15.3699C16.9999 15.3762 17.0161 15.3794 17.0326 15.3794C17.049 15.3794 17.0652 15.3762 17.0804 15.3699C17.0956 15.3636 17.1094 15.3544 17.121 15.3427L21.7111 10.7537C21.805 10.66 21.9322 10.6074 22.0648 10.6074C22.1975 10.6074 22.3258 10.66 22.4196 10.7537Z" fill="#3B99FC"/>
</svg>
