<svg preserveAspectRatio="none" width="100%" height="100%" overflow="visible" style="display: block;" viewBox="0 0 573 308" fill="none" xmlns="http://www.w3.org/2000/svg">
<g id="court">
<path id="Vector" d="M573 0H0V307.98H573V0Z" fill="var(--fill-0, #EEE0CE)"/>
<path id="Vector_2" d="M572.999 105.278H458.206V202.741H572.999V105.278Z" fill="var(--fill-0, #EBD3B7)"/>
<path id="Vector_3" d="M115.758 105.278H0V202.741H115.758V105.278Z" fill="var(--fill-0, #EBD3B7)"/>
<path id="Vector_4" d="M571.071 1.94924V306.031H1.92929V1.94924H571.071ZM573 0H0V307.98H573V0Z" fill="var(--fill-0, #B79676)"/>
<path id="Vector_5" d="M286.499 119.011C293.352 119.011 300.05 121.064 305.747 124.911C311.444 128.758 315.884 134.225 318.505 140.621C321.126 147.017 321.811 154.055 320.473 160.845C319.135 167.635 315.834 173.871 310.987 178.765C306.141 183.659 299.967 186.99 293.246 188.339C286.525 189.687 279.559 188.991 273.23 186.339C266.9 183.687 261.492 179.198 257.688 173.44C253.884 167.682 251.855 160.913 251.859 153.991C251.887 144.719 255.546 135.835 262.037 129.281C268.528 122.727 277.323 119.034 286.499 119.011ZM286.499 117.062C279.266 117.062 272.195 119.23 266.18 123.29C260.166 127.351 255.479 133.123 252.712 139.875C249.944 146.628 249.221 154.058 250.634 161.225C252.046 168.393 255.531 174.977 260.648 180.143C265.764 185.309 272.282 188.827 279.377 190.25C286.472 191.674 293.826 190.939 300.508 188.14C307.189 185.34 312.899 180.602 316.916 174.523C320.932 168.444 323.073 161.299 323.069 153.991C323.064 144.195 319.209 134.802 312.351 127.877C305.494 120.952 296.195 117.062 286.499 117.062Z" fill="var(--fill-0, #B79676)"/>
<path id="Vector_6" d="M286.501 137.48C289.744 137.48 292.915 138.452 295.612 140.273C298.308 142.093 300.41 144.681 301.652 147.708C302.893 150.736 303.217 154.067 302.585 157.281C301.952 160.495 300.39 163.447 298.097 165.765C295.803 168.082 292.881 169.66 289.7 170.299C286.519 170.938 283.222 170.61 280.225 169.356C277.229 168.102 274.668 165.979 272.866 163.254C271.064 160.529 270.102 157.326 270.102 154.049C270.102 149.655 271.83 145.44 274.905 142.333C277.98 139.226 282.152 137.48 286.501 137.48ZM286.501 135.531C282.876 135.531 279.332 136.617 276.318 138.652C273.304 140.687 270.955 143.579 269.568 146.962C268.18 150.346 267.818 154.069 268.525 157.662C269.232 161.254 270.978 164.553 273.541 167.143C276.104 169.733 279.37 171.496 282.925 172.211C286.48 172.925 290.166 172.559 293.515 171.157C296.864 169.756 299.726 167.382 301.74 164.337C303.754 161.292 304.829 157.711 304.829 154.049C304.829 151.617 304.355 149.209 303.434 146.962C302.513 144.716 301.163 142.674 299.461 140.955C297.759 139.235 295.738 137.871 293.515 136.941C291.291 136.01 288.908 135.531 286.501 135.531Z" fill="var(--fill-0, #B79676)"/>
<path id="Vector_7" d="M91.3038 20.4665C93.9951 21.6848 112.073 30.3102 129.89 49.4323C141.138 61.4635 150.185 75.4153 156.61 90.6393C164.665 109.713 168.746 131.037 168.746 153.99C168.746 176.942 164.665 198.306 156.61 217.34C150.19 232.559 141.15 246.508 129.909 258.537C112.063 277.659 93.9855 286.285 91.3231 287.503H1.92929V20.4665H91.3038ZM91.7089 18.5173H0V289.462H91.7089C91.7089 289.462 170.675 256.101 170.675 153.99C170.675 51.8786 91.7089 18.5173 91.7089 18.5173Z" fill="var(--fill-0, #B79676)"/>
<path id="Vector_8" d="M33.3974 179.623V177.674H38.3074C39.0405 177.616 57.9959 175.949 57.9959 154.01C57.9959 132.071 39.0405 130.405 38.2399 130.346H33.4167V128.397H38.3267C38.6065 128.397 59.9444 130.239 59.9444 154.01C59.9444 177.781 38.5872 179.604 38.3749 179.613L33.3974 179.623Z" fill="var(--fill-0, #B79676)"/>
<path id="Vector_9" d="M113.886 106.692V201.338H1.92929V106.692H113.886ZM115.815 104.743H0V203.277H115.815V104.743Z" fill="var(--fill-0, #B79676)"/>
<path id="Vector_10" d="M113.886 119.011V189.019H1.92929V119.011H113.886ZM115.815 117.062H0V190.968H115.815V117.062Z" fill="var(--fill-0, #B79676)"/>
<path id="Vector_11" d="M115.757 119.06C124.586 119.576 132.885 123.483 138.954 129.981C145.024 136.479 148.405 145.075 148.405 154.01C148.405 162.945 145.024 171.541 138.954 178.039C132.885 184.537 124.586 188.444 115.757 188.96V119.06ZM113.828 117.052V190.958C123.528 190.958 132.831 187.065 139.69 180.135C146.549 173.205 150.402 163.806 150.402 154.005C150.402 144.205 146.549 134.806 139.69 127.876C132.831 120.946 123.528 117.052 113.828 117.052Z" fill="var(--fill-0, #B79676)"/>
<path id="Vector_12" d="M110.819 190.763C108.848 190.59 106.894 190.264 104.973 189.788L105.436 187.898C107.26 188.367 109.118 188.693 110.992 188.872L110.819 190.763ZM99.3491 187.839C97.5248 187.06 95.7638 186.138 94.0822 185.081L95.1047 183.424C96.6999 184.429 98.3706 185.305 100.102 186.046L99.3491 187.839ZM89.3168 181.514C87.8209 180.201 86.4306 178.771 85.1592 177.235L86.6447 175.988C87.8482 177.443 89.1643 178.798 90.5805 180.042L89.3168 181.514ZM81.7347 172.333C80.7272 170.608 79.8625 168.802 79.1494 166.934L80.9533 166.232C81.6295 167.999 82.449 169.708 83.4035 171.339L81.7347 172.333ZM77.4902 161.203C77.0943 159.238 76.862 157.242 76.7957 155.238L78.725 155.17C78.7888 157.063 79.0082 158.947 79.3809 160.803L77.4902 161.203ZM78.9951 149.507L77.0658 149.254C77.3255 147.273 77.7482 145.317 78.3295 143.406L80.172 143.981C79.6282 145.787 79.2345 147.635 78.9951 149.507ZM82.2845 138.699L80.5578 137.822C81.4478 136.034 82.4802 134.323 83.6447 132.705L85.2074 133.855C84.1048 135.387 83.1273 137.007 82.2845 138.699ZM88.8731 129.537L87.5129 128.153C88.9199 126.735 90.4359 125.431 92.0468 124.255L93.1754 125.834C91.6498 126.952 90.2144 128.19 88.8827 129.537H88.8731ZM97.989 122.92L97.1208 121.175C98.8924 120.278 100.731 119.522 102.619 118.914L103.208 120.776C101.419 121.352 99.6769 122.069 97.9986 122.92H97.989ZM108.687 119.479L108.398 117.53C110.354 117.226 112.331 117.073 114.311 117.072V119.021C112.431 119.03 110.554 119.183 108.697 119.479H108.687Z" fill="var(--fill-0, #B79676)"/>
<path id="Vector_13" d="M184.403 295.661H182.473V307.98H184.403V295.661Z" fill="var(--fill-0, #B79676)"/>
<path id="Vector_14" d="M184.403 0.0394467H182.473V12.3587H184.403V0.0394467Z" fill="var(--fill-0, #B79676)"/>
<path id="Vector_15" d="M59.6817 201.327H57.7524V207.487H59.6817V201.327Z" fill="var(--fill-0, #B79676)"/>
<path id="Vector_16" d="M51.5802 201.327H49.651V207.487H51.5802V201.327Z" fill="var(--fill-0, #B79676)"/>
<path id="Vector_17" d="M84.8117 201.327H82.8824V207.487H84.8117V201.327Z" fill="var(--fill-0, #B79676)"/>
<path id="Vector_18" d="M108.86 201.327H106.931V207.487H108.86V201.327Z" fill="var(--fill-0, #B79676)"/>
<path id="Vector_19" d="M59.6817 100.533H57.7524V106.693H59.6817V100.533Z" fill="var(--fill-0, #B79676)"/>
<path id="Vector_20" d="M51.5802 100.533H49.6509V106.693H51.5802V100.533Z" fill="var(--fill-0, #B79676)"/>
<path id="Vector_21" d="M84.8116 100.533H82.8823V106.693H84.8116V100.533Z" fill="var(--fill-0, #B79676)"/>
<path id="Vector_22" d="M108.86 100.533H106.931V106.692H108.86V100.533Z" fill="var(--fill-0, #B79676)"/>
<path id="Vector_23" d="M481.697 20.4665H571.072V287.513H481.697C479.016 286.295 460.938 277.669 443.111 258.547C431.871 246.517 422.83 232.569 416.41 217.35C408.355 198.277 404.275 176.952 404.275 153.999C404.275 131.047 408.355 109.683 416.41 90.649C422.83 75.43 431.871 61.4817 443.111 49.4518C460.957 30.3297 479.035 21.7043 481.697 20.486M481.292 18.5368C481.292 18.5368 402.326 51.8981 402.326 154.009C402.326 256.12 481.292 289.482 481.292 289.482H573.001V18.5173L481.292 18.5368Z" fill="var(--fill-0, #B79676)"/>
<path id="Vector_24" d="M539.605 179.623V177.674H534.695C533.962 177.616 515.007 175.949 515.007 154.01C515.007 132.071 533.952 130.405 534.762 130.346H539.586V128.397H534.676C534.396 128.397 513.058 130.239 513.058 154.01C513.058 177.781 534.386 179.604 534.598 179.613L539.605 179.623Z" fill="var(--fill-0, #B79676)"/>
<path id="Vector_25" d="M459.115 119.011H571.072V189.018H459.115V119.011ZM457.185 117.062V190.968H573.001V117.062H457.185Z" fill="var(--fill-0, #B79676)"/>
<path id="Vector_26" d="M457.243 119.06V188.96C448.414 188.444 440.115 184.537 434.045 178.039C427.976 171.541 424.594 162.945 424.594 154.01C424.594 145.075 427.976 136.479 434.045 129.981C440.115 123.483 448.414 119.576 457.243 119.06ZM459.172 117.052C454.369 117.052 449.613 118.008 445.175 119.865C440.738 121.722 436.706 124.444 433.31 127.875C429.913 131.307 427.219 135.38 425.381 139.864C423.543 144.347 422.597 149.152 422.597 154.005C422.597 158.858 423.543 163.663 425.381 168.146C427.219 172.63 429.913 176.703 433.31 180.135C436.706 183.566 440.738 186.288 445.175 188.145C449.613 190.002 454.369 190.958 459.172 190.958V117.062V117.052Z" fill="var(--fill-0, #B79676)"/>
<path id="Vector_27" d="M462.007 188.823C463.881 188.644 465.739 188.318 467.563 187.849L468.026 189.74C466.105 190.216 464.151 190.541 462.18 190.714L462.007 188.823ZM472.898 186.075C474.629 185.335 476.299 184.458 477.895 183.453L478.917 185.11C477.235 186.167 475.474 187.089 473.65 187.868L472.898 186.075ZM482.419 180.081C483.835 178.837 485.151 177.481 486.355 176.027L487.84 177.274C486.569 178.81 485.178 180.24 483.682 181.553L482.419 180.081ZM489.605 171.378C490.56 169.746 491.379 168.038 492.056 166.271L493.859 166.972C493.146 168.841 492.282 170.647 491.274 172.372L489.605 171.378ZM493.618 160.813C493.991 158.957 494.21 157.072 494.274 155.18L496.204 155.248C496.137 157.252 495.905 159.247 495.509 161.212L493.618 160.813ZM492.798 143.962L494.641 143.387C495.222 145.297 495.645 147.253 495.905 149.234L493.975 149.488C493.739 147.616 493.349 145.768 492.808 143.962H492.798ZM487.782 133.845L489.345 132.695C490.509 134.313 491.542 136.024 492.432 137.812L490.705 138.689C489.862 137 488.884 135.384 487.782 133.855V133.845ZM479.824 125.863L480.953 124.284C482.563 125.46 484.079 126.764 485.486 128.183L484.126 129.566C482.791 128.219 481.353 126.98 479.824 125.863ZM469.782 120.775L470.37 118.914C472.259 119.521 474.097 120.277 475.869 121.175L475.001 122.92C473.319 122.068 471.574 121.351 469.782 120.775ZM458.688 119.041V117.091C460.668 117.092 462.645 117.245 464.602 117.549L464.312 119.499C462.452 119.205 460.572 119.055 458.688 119.05V119.041Z" fill="var(--fill-0, #B79676)"/>
<path id="Vector_28" d="M391.125 295.661H389.196V307.98H391.125V295.661Z" fill="var(--fill-0, #B79676)"/>
<path id="Vector_29" d="M391.125 0.0394467H389.196V12.3587H391.125V0.0394467Z" fill="var(--fill-0, #B79676)"/>
<path id="Vector_30" d="M459.115 106.692H571.072V201.338H459.115V106.692ZM457.185 104.743V203.277H573.001V104.743H457.185Z" fill="var(--fill-0, #B79676)"/>
<path id="Vector_31" d="M515.247 201.327H513.318V207.487H515.247V201.327Z" fill="var(--fill-0, #B79676)"/>
<path id="Vector_32" d="M523.35 201.327H521.421V207.487H523.35V201.327Z" fill="var(--fill-0, #B79676)"/>
<path id="Vector_33" d="M490.119 201.327H488.19V207.487H490.119V201.327Z" fill="var(--fill-0, #B79676)"/>
<path id="Vector_34" d="M466.068 201.327H464.139V207.487H466.068V201.327Z" fill="var(--fill-0, #B79676)"/>
<path id="Vector_35" d="M515.247 100.533H513.318V106.693H515.247V100.533Z" fill="var(--fill-0, #B79676)"/>
<path id="Vector_36" d="M523.35 100.533H521.421V106.693H523.35V100.533Z" fill="var(--fill-0, #B79676)"/>
<path id="Vector_37" d="M490.119 100.533H488.19V106.693H490.119V100.533Z" fill="var(--fill-0, #B79676)"/>
<path id="Vector_38" d="M466.068 100.533H464.139V106.693H466.068V100.533Z" fill="var(--fill-0, #B79676)"/>
<path id="Vector_39" d="M287.466 0.0187372H285.537V307.999H287.466V0.0187372Z" fill="var(--fill-0, #B79676)"/>
</g>
</svg>
