<svg width="66" height="14" viewBox="0 0 66 14" fill="none" xmlns="http://www.w3.org/2000/svg">
<path d="M0 0.329634H10.4659V3.53441H4.85295V5.58547H9.66012V8.80856H4.85295V13.4601H0V0.329634Z" fill="#101012"/>
<path d="M18.098 13.7897C16.633 13.7897 15.3419 13.5425 14.2248 13.048C13.1138 12.5475 12.2409 11.7814 11.6061 10.7497C10.9712 9.71811 10.6538 8.42704 10.6538 6.87654C10.6538 5.31993 10.9773 4.02886 11.6244 3.00334C12.2775 1.9717 13.1627 1.21476 14.2798 0.732521C15.3969 0.244174 16.6696 0 18.098 0C19.5325 0 20.8053 0.241121 21.9163 0.723364C23.0334 1.1995 23.9155 1.95034 24.5625 2.97587C25.2157 4.0014 25.5423 5.30162 25.5423 6.87654C25.5423 8.42704 25.2248 9.71811 24.59 10.7497C23.9551 11.7814 23.0792 12.5475 21.9621 13.048C20.8511 13.5425 19.5631 13.7897 18.098 13.7897ZM18.098 10.7681C18.6474 10.7681 19.0839 10.5971 19.4074 10.2553C19.7309 9.91345 19.9568 9.45562 20.085 8.88181C20.2193 8.30801 20.2864 7.63958 20.2864 6.87654C20.2864 6.1196 20.2193 5.45728 20.085 4.88958C19.9568 4.32187 19.7309 3.87015 19.4074 3.53441C19.0839 3.19257 18.6474 3.02165 18.098 3.02165C17.2923 3.02165 16.7245 3.3696 16.3949 4.06549C16.0714 4.76139 15.9096 5.6984 15.9096 6.87654C15.9096 7.63958 15.9737 8.30801 16.1019 8.88181C16.2362 9.45562 16.4651 9.91345 16.7886 10.2553C17.1122 10.5971 17.5486 10.7681 18.098 10.7681Z" fill="#101012"/>
<path d="M26.4902 0.329634H33.2934C34.5753 0.329634 35.6283 0.457825 36.4524 0.714208C37.2765 0.97059 37.89 1.36127 38.2929 1.88624C38.6958 2.40511 38.8972 3.06743 38.8972 3.8732C38.8972 4.66066 38.7263 5.31078 38.3845 5.82354C38.0487 6.33631 37.6062 6.72393 37.0568 6.98642C36.5135 7.2428 35.903 7.41372 35.2255 7.49918L35.317 7.19702C36.2022 7.32521 36.895 7.48697 37.3956 7.68231C37.9022 7.87765 38.2837 8.17371 38.5401 8.57049C38.8026 8.96728 38.9338 9.52277 38.9338 10.237V13.4601H34.0626V10.0996C34.0626 9.7761 33.9954 9.51056 33.8611 9.30301C33.7268 9.08936 33.5254 8.93065 33.2568 8.82688C32.9943 8.7231 32.6677 8.67122 32.2771 8.67122H31.3431V13.4601H26.4902V0.329634ZM32.3228 5.96089C32.8906 5.96089 33.3301 5.84796 33.6414 5.6221C33.9588 5.39624 34.1175 5.02387 34.1175 4.505C34.1175 4.03497 33.9619 3.69618 33.6505 3.48863C33.3453 3.27498 32.9028 3.16815 32.3228 3.16815H31.3431V5.96089H32.3228Z" fill="#101012"/>
<path d="M46.6759 13.7897C45.2291 13.7897 43.9747 13.5394 42.9125 13.0389C41.8504 12.5322 41.0263 11.7661 40.4403 10.7406C39.8604 9.70895 39.5704 8.42094 39.5704 6.87654C39.5704 5.33214 39.8756 4.04718 40.4861 3.02165C41.1026 1.99612 41.9572 1.23613 43.0499 0.741677C44.1487 0.247226 45.4306 0 46.8956 0C48.1653 0 49.3007 0.201443 50.3018 0.60433C51.3091 1.00722 52.1057 1.59018 52.6917 2.35322C53.2838 3.11016 53.6073 4.01055 53.6623 5.05439H48.4614C48.4492 4.43786 48.3088 3.94646 48.0402 3.5802C47.7777 3.20783 47.3687 3.02165 46.8132 3.02165C46.3249 3.02165 45.9342 3.17426 45.6412 3.47947C45.3482 3.77859 45.1376 4.20894 45.0094 4.77054C44.8873 5.33214 44.8262 6.02804 44.8262 6.85823C44.8262 7.71894 44.8842 8.43315 45.0002 9.00085C45.1223 9.56855 45.3237 10.002 45.6045 10.3011C45.8915 10.6002 46.273 10.7497 46.7491 10.7497C47.1642 10.7497 47.4999 10.646 47.7563 10.4384C48.0127 10.2309 48.2019 9.95618 48.324 9.61434C48.4461 9.26639 48.5194 8.86655 48.5438 8.41483H53.6623C53.6073 9.62349 53.2716 10.6307 52.6551 11.4365C52.0385 12.2361 51.2144 12.8283 50.1828 13.2128C49.1573 13.5974 47.9883 13.7897 46.6759 13.7897Z" fill="#101012"/>
<path d="M54.4453 0.329634H65.2683V3.42453H59.2983V5.22837H64.1787V8.34158H59.2983V10.3469H65.2683V13.4601H54.4453V0.329634Z" fill="#101012"/>
</svg>
