<svg preserveAspectRatio="none" width="100%" height="100%" overflow="visible" style="display: block;" viewBox="0 0 13 15" fill="none" xmlns="http://www.w3.org/2000/svg">
<path id="Vector" d="M6.75 0.75V3.41667C6.75 3.59348 6.82024 3.76305 6.94526 3.88807C7.07029 4.0131 7.23986 4.08333 7.41667 4.08333H10.0833M6.75 0.75H2.08333C1.72971 0.75 1.39057 0.890476 1.14052 1.14052C0.890476 1.39057 0.75 1.72971 0.75 2.08333V11.4167C0.75 11.7703 0.890476 12.1094 1.14052 12.3595C1.39057 12.6095 1.72971 12.75 2.08333 12.75H5.08333M6.75 0.75L10.0833 4.08333M10.0833 4.08333V7.41667M6.75 11.4167H11.4167M11.4167 11.4167L9.41667 9.41667M11.4167 11.4167L9.41667 13.4167" stroke="var(--stroke-0, #0D0F13)" stroke-width="1.5" stroke-linecap="round" stroke-linejoin="round"/>
</svg>
