<svg preserveAspectRatio="none" width="100%" height="100%" overflow="visible" style="display: block;" viewBox="0 0 13 10" fill="none" xmlns="http://www.w3.org/2000/svg">
<path id="Icon" d="M8.90821 2.24992C10.275 3.61675 10.275 5.83283 8.90821 7.19966M3.95846 7.19964C2.59162 5.83281 2.59162 3.61673 3.95846 2.2499M2.30854 8.84958C0.0304854 6.57152 0.0304854 2.87806 2.30854 0.6M10.5581 0.600027C12.8362 2.87809 12.8362 6.57155 10.5581 8.84961M7.6 4.72479C7.6 5.36912 7.07767 5.89146 6.43333 5.89146C5.789 5.89146 5.26667 5.36912 5.26667 4.72479C5.26667 4.08046 5.789 3.55812 6.43333 3.55812C7.07767 3.55812 7.6 4.08046 7.6 4.72479Z" stroke="var(--stroke-0, #DF1C41)" stroke-width="1.2" stroke-linecap="round" stroke-linejoin="round"/>
</svg>
