<svg preserveAspectRatio="none" width="100%" height="100%" overflow="visible" style="display: block;" viewBox="0 0 14 14" fill="none" xmlns="http://www.w3.org/2000/svg">
<path id="Vector" d="M12.75 12.75L8.75 8.75M0.75 5.41667C0.75 6.0295 0.870707 6.63634 1.10523 7.20252C1.33975 7.76871 1.68349 8.28316 2.11683 8.7165C2.55018 9.14984 3.06462 9.49358 3.63081 9.72811C4.197 9.96263 4.80383 10.0833 5.41667 10.0833C6.0295 10.0833 6.63634 9.96263 7.20252 9.72811C7.76871 9.49358 8.28316 9.14984 8.7165 8.7165C9.14984 8.28316 9.49358 7.76871 9.72811 7.20252C9.96263 6.63634 10.0833 6.0295 10.0833 5.41667C10.0833 4.80383 9.96263 4.197 9.72811 3.63081C9.49358 3.06462 9.14984 2.55018 8.7165 2.11683C8.28316 1.68349 7.76871 1.33975 7.20252 1.10523C6.63634 0.870707 6.0295 0.75 5.41667 0.75C4.80383 0.75 4.197 0.870707 3.63081 1.10523C3.06462 1.33975 2.55018 1.68349 2.11683 2.11683C1.68349 2.55018 1.33975 3.06462 1.10523 3.63081C0.870707 4.197 0.75 4.80383 0.75 5.41667Z" stroke="var(--stroke-0, #868C98)" stroke-width="1.5" stroke-linecap="round" stroke-linejoin="round"/>
</svg>
